<svg xmlns="http://www.w3.org/2000/svg" xmlns:xlink="http://www.w3.org/1999/xlink" contentStyleType="text/css" height="585px" preserveAspectRatio="none" style="width:630px;height:585px;background:#FFFFFF;" version="1.1" viewBox="0 0 630 585" width="630px" zoomAndPan="magnify"><defs/><g><!--class ex:Person--><g id="elem_ex:Person"><rect codeLine="2" fill="#F1F1F1" height="113.9531" id="ex:Person" rx="2.5" ry="2.5" style="stroke:#181818;stroke-width:0.5;" width="135.8809" x="254.97" y="7"/><ellipse cx="286.7883" cy="23" fill="#ADD1B2" rx="11" ry="11" style="stroke:#181818;stroke-width:1.0;"/><path d="M289.2615,29.1431 Q288.6804,29.4419 288.0412,29.5913 Q287.4021,29.7407 286.6965,29.7407 Q284.1897,29.7407 282.8699,28.0889 Q281.55,26.437 281.55,23.3159 Q281.55,20.1865 282.8699,18.5347 Q284.1897,16.8828 286.6965,16.8828 Q287.4021,16.8828 288.0495,17.0322 Q288.697,17.1816 289.2615,17.4805 L289.2615,20.2031 Q288.6306,19.6221 288.0371,19.3523 Q287.4436,19.0825 286.8127,19.0825 Q285.468,19.0825 284.7832,20.1492 Q284.0984,21.2158 284.0984,23.3159 Q284.0984,25.4077 284.7832,26.4744 Q285.468,27.541 286.8127,27.541 Q287.4436,27.541 288.0371,27.2712 Q288.6306,27.0015 289.2615,26.4204 Z " fill="#000000"/><text fill="#000000" font-family="sans-serif" font-size="14" lengthAdjust="spacing" textLength="66.5068" x="304.5257" y="28.291">ex:Person</text><line style="stroke:#181818;stroke-width:0.5;" x1="255.97" x2="389.8509" y1="39" y2="39"/><text fill="#000000" font-family="sans-serif" font-size="14" lengthAdjust="spacing" textLength="33.6738" x="260.97" y="56.5352">ex:id</text><text fill="#000000" font-family="sans-serif" font-size="14" lengthAdjust="spacing" textLength="68.3457" x="260.97" y="73.0234">foaf:name</text><text fill="#000000" font-family="sans-serif" font-size="14" lengthAdjust="spacing" textLength="80.8555" x="260.97" y="89.5117">ex:hasEmail</text><text fill="#000000" font-family="sans-serif" font-size="14" lengthAdjust="spacing" textLength="123.8809" x="260.97" y="106">ex:hasPhone [0..*]</text><line style="stroke:#181818;stroke-width:0.5;" x1="255.97" x2="389.8509" y1="112.9531" y2="112.9531"/></g><!--class ex:Student--><g id="elem_ex:Student"><rect codeLine="9" fill="#F1F1F1" height="48" id="ex:Student" rx="2.5" ry="2.5" style="stroke:#181818;stroke-width:0.5;" width="104.8164" x="200.5" y="181.95"/><ellipse cx="215.5" cy="197.95" fill="#ADD1B2" rx="11" ry="11" style="stroke:#181818;stroke-width:1.0;"/><path d="M217.9731,204.0931 Q217.3921,204.3919 216.7529,204.5413 Q216.1138,204.6907 215.4082,204.6907 Q212.9014,204.6907 211.5815,203.0389 Q210.2617,201.387 210.2617,198.2659 Q210.2617,195.1365 211.5815,193.4847 Q212.9014,191.8328 215.4082,191.8328 Q216.1138,191.8328 216.7612,191.9822 Q217.4087,192.1316 217.9731,192.4305 L217.9731,195.1531 Q217.3423,194.5721 216.7488,194.3023 Q216.1553,194.0325 215.5244,194.0325 Q214.1797,194.0325 213.4949,195.0992 Q212.8101,196.1658 212.8101,198.2659 Q212.8101,200.3577 213.4949,201.4244 Q214.1797,202.491 215.5244,202.491 Q216.1553,202.491 216.7488,202.2212 Q217.3423,201.9515 217.9731,201.3704 Z " fill="#000000"/><text fill="#000000" font-family="sans-serif" font-size="14" lengthAdjust="spacing" textLength="72.8164" x="229.5" y="203.241">ex:Student</text><line style="stroke:#181818;stroke-width:0.5;" x1="201.5" x2="304.3164" y1="213.95" y2="213.95"/><line style="stroke:#181818;stroke-width:0.5;" x1="201.5" x2="304.3164" y1="221.95" y2="221.95"/></g><!--class ex:Teacher--><g id="elem_ex:Teacher"><rect codeLine="11" fill="#F1F1F1" height="48" id="ex:Teacher" rx="2.5" ry="2.5" style="stroke:#181818;stroke-width:0.5;" width="106.5869" x="340.62" y="181.95"/><ellipse cx="355.62" cy="197.95" fill="#ADD1B2" rx="11" ry="11" style="stroke:#181818;stroke-width:1.0;"/><path d="M358.0931,204.0931 Q357.5121,204.3919 356.8729,204.5413 Q356.2338,204.6907 355.5282,204.6907 Q353.0214,204.6907 351.7015,203.0389 Q350.3817,201.387 350.3817,198.2659 Q350.3817,195.1365 351.7015,193.4847 Q353.0214,191.8328 355.5282,191.8328 Q356.2338,191.8328 356.8812,191.9822 Q357.5287,192.1316 358.0931,192.4305 L358.0931,195.1531 Q357.4623,194.5721 356.8688,194.3023 Q356.2753,194.0325 355.6444,194.0325 Q354.2997,194.0325 353.6149,195.0992 Q352.9301,196.1658 352.9301,198.2659 Q352.9301,200.3577 353.6149,201.4244 Q354.2997,202.491 355.6444,202.491 Q356.2753,202.491 356.8688,202.2212 Q357.4623,201.9515 358.0931,201.3704 Z " fill="#000000"/><text fill="#000000" font-family="sans-serif" font-size="14" lengthAdjust="spacing" textLength="74.5869" x="369.62" y="203.241">ex:Teacher</text><line style="stroke:#181818;stroke-width:0.5;" x1="341.62" x2="446.2069" y1="213.95" y2="213.95"/><line style="stroke:#181818;stroke-width:0.5;" x1="341.62" x2="446.2069" y1="221.95" y2="221.95"/></g><!--class ex:Course--><g id="elem_ex:Course"><rect codeLine="13" fill="#F1F1F1" height="97.4648" id="ex:Course" rx="2.5" ry="2.5" style="stroke:#181818;stroke-width:0.5;" width="100.4551" x="335.69" y="481.42"/><ellipse cx="350.69" cy="497.42" fill="#ADD1B2" rx="11" ry="11" style="stroke:#181818;stroke-width:1.0;"/><path d="M353.1631,503.5631 Q352.5821,503.8619 351.9429,504.0113 Q351.3038,504.1607 350.5982,504.1607 Q348.0914,504.1607 346.7715,502.5089 Q345.4517,500.857 345.4517,497.7359 Q345.4517,494.6065 346.7715,492.9547 Q348.0914,491.3028 350.5982,491.3028 Q351.3038,491.3028 351.9512,491.4522 Q352.5987,491.6016 353.1631,491.9005 L353.1631,494.6231 Q352.5323,494.0421 351.9388,493.7723 Q351.3453,493.5025 350.7144,493.5025 Q349.3697,493.5025 348.6849,494.5692 Q348.0001,495.6358 348.0001,497.7359 Q348.0001,499.8277 348.6849,500.8944 Q349.3697,501.961 350.7144,501.961 Q351.3453,501.961 351.9388,501.6912 Q352.5323,501.4215 353.1631,500.8404 Z " fill="#000000"/><text fill="#000000" font-family="sans-serif" font-size="14" lengthAdjust="spacing" textLength="68.4551" x="364.69" y="502.711">ex:Course</text><line style="stroke:#181818;stroke-width:0.5;" x1="336.69" x2="435.1451" y1="513.42" y2="513.42"/><text fill="#000000" font-family="sans-serif" font-size="14" lengthAdjust="spacing" textLength="53.1973" x="341.69" y="530.9552">ex:code</text><text fill="#000000" font-family="sans-serif" font-size="14" lengthAdjust="spacing" textLength="47.1816" x="341.69" y="547.4434">ex:title</text><text fill="#000000" font-family="sans-serif" font-size="14" lengthAdjust="spacing" textLength="66.7461" x="341.69" y="563.9317">ex:credits</text><line style="stroke:#181818;stroke-width:0.5;" x1="336.69" x2="435.1451" y1="570.8848" y2="570.8848"/></g><!--class ex:Enrollment--><g id="elem_ex:Enrollment"><rect codeLine="19" fill="#F1F1F1" height="97.4648" id="ex:Enrollment" rx="2.5" ry="2.5" style="stroke:#181818;stroke-width:0.5;" width="163.8262" x="7" y="306.95"/><ellipse cx="38.8829" cy="322.95" fill="#ADD1B2" rx="11" ry="11" style="stroke:#181818;stroke-width:1.0;"/><path d="M41.3561,329.0931 Q40.775,329.3919 40.1358,329.5413 Q39.4967,329.6907 38.7911,329.6907 Q36.2843,329.6907 34.9645,328.0389 Q33.6446,326.387 33.6446,323.2659 Q33.6446,320.1365 34.9645,318.4847 Q36.2843,316.8328 38.7911,316.8328 Q39.4967,316.8328 40.1441,316.9822 Q40.7916,317.1316 41.3561,317.4305 L41.3561,320.1531 Q40.7252,319.5721 40.1317,319.3023 Q39.5382,319.0325 38.9073,319.0325 Q37.5626,319.0325 36.8778,320.0992 Q36.193,321.1658 36.193,323.2659 Q36.193,325.3577 36.8778,326.4244 Q37.5626,327.491 38.9073,327.491 Q39.5382,327.491 40.1317,327.2212 Q40.7252,326.9515 41.3561,326.3704 Z " fill="#000000"/><text fill="#000000" font-family="sans-serif" font-size="14" lengthAdjust="spacing" textLength="94.3086" x="56.6347" y="328.241">ex:Enrollment</text><line style="stroke:#181818;stroke-width:0.5;" x1="8" x2="169.8262" y1="338.95" y2="338.95"/><text fill="#000000" font-family="sans-serif" font-size="14" lengthAdjust="spacing" textLength="59.6162" x="13" y="356.4852">ex:grade</text><text fill="#000000" font-family="sans-serif" font-size="14" lengthAdjust="spacing" textLength="89.0586" x="13" y="372.9734">ex:enrolledIn</text><text fill="#000000" font-family="sans-serif" font-size="14" lengthAdjust="spacing" textLength="151.8262" x="13" y="389.4617">ex:completedOn [0..1]</text><line style="stroke:#181818;stroke-width:0.5;" x1="8" x2="169.8262" y1="396.4148" y2="396.4148"/></g><!--class ex:Department--><g id="elem_ex:Department"><rect codeLine="25" fill="#F1F1F1" height="80.9766" id="ex:Department" rx="2.5" ry="2.5" style="stroke:#181818;stroke-width:0.5;" width="133.4043" x="490.21" y="315.19"/><ellipse cx="505.21" cy="331.19" fill="#ADD1B2" rx="11" ry="11" style="stroke:#181818;stroke-width:1.0;"/><path d="M507.6831,337.3331 Q507.1021,337.6319 506.4629,337.7813 Q505.8238,337.9307 505.1182,337.9307 Q502.6114,337.9307 501.2915,336.2789 Q499.9717,334.627 499.9717,331.5059 Q499.9717,328.3765 501.2915,326.7247 Q502.6114,325.0728 505.1182,325.0728 Q505.8238,325.0728 506.4712,325.2222 Q507.1187,325.3716 507.6831,325.6705 L507.6831,328.3931 Q507.0523,327.8121 506.4588,327.5423 Q505.8653,327.2725 505.2344,327.2725 Q503.8897,327.2725 503.2049,328.3392 Q502.5201,329.4058 502.5201,331.5059 Q502.5201,333.5977 503.2049,334.6644 Q503.8897,335.731 505.2344,335.731 Q505.8653,335.731 506.4588,335.4612 Q507.0523,335.1915 507.6831,334.6104 Z " fill="#000000"/><text fill="#000000" font-family="sans-serif" font-size="14" lengthAdjust="spacing" textLength="101.4043" x="519.21" y="336.481">ex:Department</text><line style="stroke:#181818;stroke-width:0.5;" x1="491.21" x2="622.6143" y1="347.19" y2="347.19"/><text fill="#000000" font-family="sans-serif" font-size="14" lengthAdjust="spacing" textLength="68.3457" x="496.21" y="364.7252">foaf:name</text><text fill="#000000" font-family="sans-serif" font-size="14" lengthAdjust="spacing" textLength="74.9355" x="496.21" y="381.2134">ex:location</text><line style="stroke:#181818;stroke-width:0.5;" x1="491.21" x2="622.6143" y1="388.1666" y2="388.1666"/></g><!--class ex:Program--><g id="elem_ex:Program"><rect codeLine="30" fill="#F1F1F1" height="80.9766" id="ex:Program" rx="2.5" ry="2.5" style="stroke:#181818;stroke-width:0.5;" width="110.1416" x="205.84" y="315.19"/><ellipse cx="220.84" cy="331.19" fill="#ADD1B2" rx="11" ry="11" style="stroke:#181818;stroke-width:1.0;"/><path d="M223.3131,337.3331 Q222.7321,337.6319 222.0929,337.7813 Q221.4538,337.9307 220.7482,337.9307 Q218.2414,337.9307 216.9215,336.2789 Q215.6017,334.627 215.6017,331.5059 Q215.6017,328.3765 216.9215,326.7247 Q218.2414,325.0728 220.7482,325.0728 Q221.4538,325.0728 222.1012,325.2222 Q222.7487,325.3716 223.3131,325.6705 L223.3131,328.3931 Q222.6823,327.8121 222.0888,327.5423 Q221.4953,327.2725 220.8644,327.2725 Q219.5197,327.2725 218.8349,328.3392 Q218.1501,329.4058 218.1501,331.5059 Q218.1501,333.5977 218.8349,334.6644 Q219.5197,335.731 220.8644,335.731 Q221.4953,335.731 222.0888,335.4612 Q222.6823,335.1915 223.3131,334.6104 Z " fill="#000000"/><text fill="#000000" font-family="sans-serif" font-size="14" lengthAdjust="spacing" textLength="78.1416" x="234.84" y="336.481">ex:Program</text><line style="stroke:#181818;stroke-width:0.5;" x1="206.84" x2="314.9816" y1="347.19" y2="347.19"/><text fill="#000000" font-family="sans-serif" font-size="14" lengthAdjust="spacing" textLength="68.3457" x="211.84" y="364.7252">foaf:name</text><text fill="#000000" font-family="sans-serif" font-size="14" lengthAdjust="spacing" textLength="78.3467" x="211.84" y="381.2134">ex:duration</text><line style="stroke:#181818;stroke-width:0.5;" x1="206.84" x2="314.9816" y1="388.1666" y2="388.1666"/></g><!--reverse link ex:Person to ex:Student--><g id="link_ex:Person_ex:Student"><path codeLine="35" d="M286.7932,137.2012 C276.2232,158.3512 272.82,165.15 264.56,181.67 " fill="none" id="ex:Person-backto-ex:Student" style="stroke:#181818;stroke-width:1.0;"/><polygon fill="none" points="294.84,121.1,281.4261,134.5189,292.1603,139.8835,294.84,121.1" style="stroke:#181818;stroke-width:1.0;"/></g><!--reverse link ex:Person to ex:Teacher--><g id="link_ex:Person_ex:Teacher"><path codeLine="36" d="M359.5238,137.1524 C370.2538,158.3024 373.72,165.15 382.1,181.67 " fill="none" id="ex:Person-backto-ex:Teacher" style="stroke:#181818;stroke-width:1.0;"/><polygon fill="none" points="351.38,121.1,354.173,139.867,364.8746,134.4378,351.38,121.1" style="stroke:#181818;stroke-width:1.0;"/></g><!--link ex:Student to ex:Enrollment--><g id="link_ex:Student_ex:Enrollment"><path codeLine="38" d="M200.04,229.34 C184.18,237.55 167.42,247.85 153.91,259.95 C139.06,273.26 125.89,290.62 115.36,306.85 " fill="none" id="ex:Student-ex:Enrollment" style="stroke:#181818;stroke-width:1.0;"/><text fill="#000000" font-family="sans-serif" font-size="13" lengthAdjust="spacing" textLength="92.5615" x="154.91" y="273.5184">ex:hasEnrolled</text><text fill="#000000" font-family="sans-serif" font-size="13" lengthAdjust="spacing" textLength="8.2202" x="184.4131" y="229.0644">1</text><text fill="#000000" font-family="sans-serif" font-size="13" lengthAdjust="spacing" textLength="22.7119" x="95.681" y="296.1673">0..*</text></g><!--link ex:Enrollment to ex:Course--><g id="link_ex:Enrollment_ex:Course"><path codeLine="39" d="M171.25,404.49 C223.95,435.1 290.63,473.82 335.58,499.92 " fill="none" id="ex:Enrollment-ex:Course" style="stroke:#181818;stroke-width:1.0;"/><text fill="#000000" font-family="sans-serif" font-size="13" lengthAdjust="spacing" textLength="61.2295" x="247.32" y="447.9884">ex:course</text><text fill="#000000" font-family="sans-serif" font-size="13" lengthAdjust="spacing" textLength="22.7119" x="159.3318" y="424.9984">0..*</text><text fill="#000000" font-family="sans-serif" font-size="13" lengthAdjust="spacing" textLength="8.2202" x="319.6153" y="491.9692">1</text></g><!--link ex:Teacher to ex:Course--><g id="link_ex:Teacher_ex:Course"><path codeLine="41" d="M393.33,230.38 C392.03,282.88 388.85,410.8 387.11,481.03 " fill="none" id="ex:Teacher-ex:Course" style="stroke:#181818;stroke-width:1.0;"/><text fill="#000000" font-family="sans-serif" font-size="13" lengthAdjust="spacing" textLength="67.209" x="392.35" y="360.7484">ex:teaches</text><text fill="#000000" font-family="sans-serif" font-size="13" lengthAdjust="spacing" textLength="22.7119" x="368.7336" y="250.3681">0..*</text><text fill="#000000" font-family="sans-serif" font-size="13" lengthAdjust="spacing" textLength="22.7119" x="363.7809" y="470.6577">0..*</text></g><!--link ex:Teacher to ex:Department--><g id="link_ex:Teacher_ex:Department"><path codeLine="42" d="M419.74,230.36 C444.79,253.06 483.27,287.94 513.11,314.98 " fill="none" id="ex:Teacher-ex:Department" style="stroke:#181818;stroke-width:1.0;"/><text fill="#000000" font-family="sans-serif" font-size="13" lengthAdjust="spacing" textLength="85.5029" x="471.53" y="273.5184">ex:belongsTo</text><text fill="#000000" font-family="sans-serif" font-size="13" lengthAdjust="spacing" textLength="22.7119" x="401.251" y="250.3435">0..*</text><text fill="#000000" font-family="sans-serif" font-size="13" lengthAdjust="spacing" textLength="8.2202" x="497.211" y="304.5912">1</text></g><!--link ex:Department to ex:Course--><g id="link_ex:Department_ex:Course"><path codeLine="44" d="M517.68,396.25 C492.64,421.51 460.01,454.41 433.49,481.16 " fill="none" id="ex:Department-ex:Course" style="stroke:#181818;stroke-width:1.0;"/><text fill="#000000" font-family="sans-serif" font-size="13" lengthAdjust="spacing" textLength="56.0625" x="477.54" y="447.9884">ex:offers</text><text fill="#000000" font-family="sans-serif" font-size="13" lengthAdjust="spacing" textLength="22.7119" x="487.4193" y="416.806">0..*</text><text fill="#000000" font-family="sans-serif" font-size="13" lengthAdjust="spacing" textLength="8.2202" x="431.6329" y="470.8059">1</text></g><!--link ex:Student to ex:Program--><g id="link_ex:Student_ex:Program"><path codeLine="45" d="M254.18,230.36 C255.41,253.06 257.3,287.94 258.76,314.98 " fill="none" id="ex:Student-ex:Program" style="stroke:#181818;stroke-width:1.0;"/><text fill="#000000" font-family="sans-serif" font-size="13" lengthAdjust="spacing" textLength="82.6973" x="257.67" y="273.5184">ex:enrolledIn</text><text fill="#000000" font-family="sans-serif" font-size="13" lengthAdjust="spacing" textLength="22.7119" x="230.0127" y="250.3435">0..*</text><text fill="#000000" font-family="sans-serif" font-size="13" lengthAdjust="spacing" textLength="24.667" x="232.4715" y="304.5912">0..1</text></g><!--SRC=[XP8nRyCW48Lt_mh4M2bHlLhTsWoTQgdPgWuKpZ4IvYB0KgMa_xtOO0nEgausnttldT-PAsOjeV3Tj60iQaek5I7-A8L_TiYwHhC1GgrdzZ0mgTAfxL43-NZSxny-gv-guadjtOq2jFDofAWVWV4Up4tz6KTZ8Rbp5D7JIQVYApSWfBEbqK4RL6e8Ng7lPDX2mtmBubKlkiDPWGFnfkUnwytOBt1cngrgcm0KSkOawX9g3NhBuIuXHfE8FEMdwsvN17N_Teahm2bKMbCoTKp1qviOchaoBIj-VH3FMo8vQTIqM420UJW5sxIpZ5gTIz3DlPR-2KQxFEX0Ve52VR97ZAvvnt_ZOjVvvEWcf6BQoALT1N3zFsZr2m00]--></g></svg>