<svg xmlns="http://www.w3.org/2000/svg" xmlns:xlink="http://www.w3.org/1999/xlink" contentStyleType="text/css" height="727px" preserveAspectRatio="none" style="width:462px;height:727px;background:#FFFFFF;" version="1.1" viewBox="0 0 462 727" width="462px" zoomAndPan="magnify"><defs/><g><!--class Person--><g id="elem_Person"><rect codeLine="2" fill="#F1F1F1" height="97.4648" id="Person" rx="2.5" ry="2.5" style="stroke:#181818;stroke-width:0.5;" width="98.1191" x="288.5" y="7"/><ellipse cx="312.6925" cy="23" fill="#ADD1B2" rx="11" ry="11" style="stroke:#181818;stroke-width:1.0;"/><path d="M315.1656,29.1431 Q314.5846,29.4419 313.9454,29.5913 Q313.3063,29.7407 312.6007,29.7407 Q310.0938,29.7407 308.774,28.0889 Q307.4542,26.437 307.4542,23.3159 Q307.4542,20.1865 308.774,18.5347 Q310.0938,16.8828 312.6007,16.8828 Q313.3063,16.8828 313.9537,17.0322 Q314.6012,17.1816 315.1656,17.4805 L315.1656,20.2031 Q314.5348,19.6221 313.9413,19.3523 Q313.3478,19.0825 312.7169,19.0825 Q311.3722,19.0825 310.6874,20.1492 Q310.0025,21.2158 310.0025,23.3159 Q310.0025,25.4077 310.6874,26.4744 Q311.3722,27.541 312.7169,27.541 Q313.3478,27.541 313.9413,27.2712 Q314.5348,27.0015 315.1656,26.4204 Z " fill="#000000"/><text fill="#000000" font-family="sans-serif" font-size="14" lengthAdjust="spacing" textLength="45.6914" x="328.7353" y="28.291">Person</text><line style="stroke:#181818;stroke-width:0.5;" x1="289.5" x2="385.6191" y1="39" y2="39"/><text fill="#000000" font-family="sans-serif" font-size="14" lengthAdjust="spacing" textLength="39.6758" x="294.5" y="56.5352">id: Int</text><text fill="#000000" font-family="sans-serif" font-size="14" lengthAdjust="spacing" textLength="86.1191" x="294.5" y="73.0234">name: String</text><text fill="#000000" font-family="sans-serif" font-size="14" lengthAdjust="spacing" textLength="85.5244" x="294.5" y="89.5117">email: String</text><line style="stroke:#181818;stroke-width:0.5;" x1="289.5" x2="385.6191" y1="96.4648" y2="96.4648"/></g><!--class Student--><g id="elem_Student"><rect codeLine="8" fill="#F1F1F1" height="48" id="Student" rx="2.5" ry="2.5" style="stroke:#181818;stroke-width:0.5;" width="84.001" x="232.56" y="165.46"/><ellipse cx="247.56" cy="181.46" fill="#ADD1B2" rx="11" ry="11" style="stroke:#181818;stroke-width:1.0;"/><path d="M250.0331,187.6031 Q249.4521,187.9019 248.8129,188.0513 Q248.1738,188.2007 247.4682,188.2007 Q244.9614,188.2007 243.6415,186.5489 Q242.3217,184.897 242.3217,181.7759 Q242.3217,178.6465 243.6415,176.9947 Q244.9614,175.3428 247.4682,175.3428 Q248.1738,175.3428 248.8212,175.4922 Q249.4687,175.6416 250.0331,175.9405 L250.0331,178.6631 Q249.4023,178.0821 248.8088,177.8123 Q248.2153,177.5425 247.5844,177.5425 Q246.2397,177.5425 245.5549,178.6092 Q244.8701,179.6758 244.8701,181.7759 Q244.8701,183.8677 245.5549,184.9344 Q246.2397,186.001 247.5844,186.001 Q248.2153,186.001 248.8088,185.7312 Q249.4023,185.4615 250.0331,184.8804 Z " fill="#000000"/><text fill="#000000" font-family="sans-serif" font-size="14" lengthAdjust="spacing" textLength="52.001" x="261.56" y="186.751">Student</text><line style="stroke:#181818;stroke-width:0.5;" x1="233.56" x2="315.561" y1="197.46" y2="197.46"/><line style="stroke:#181818;stroke-width:0.5;" x1="233.56" x2="315.561" y1="205.46" y2="205.46"/></g><!--class Teacher--><g id="elem_Teacher"><rect codeLine="10" fill="#F1F1F1" height="48" id="Teacher" rx="2.5" ry="2.5" style="stroke:#181818;stroke-width:0.5;" width="85.7715" x="358.68" y="315.2"/><ellipse cx="373.68" cy="331.2" fill="#ADD1B2" rx="11" ry="11" style="stroke:#181818;stroke-width:1.0;"/><path d="M376.1531,337.3431 Q375.5721,337.6419 374.9329,337.7913 Q374.2938,337.9407 373.5882,337.9407 Q371.0814,337.9407 369.7615,336.2889 Q368.4417,334.637 368.4417,331.5159 Q368.4417,328.3865 369.7615,326.7347 Q371.0814,325.0828 373.5882,325.0828 Q374.2938,325.0828 374.9412,325.2322 Q375.5887,325.3816 376.1531,325.6805 L376.1531,328.4031 Q375.5223,327.8221 374.9288,327.5523 Q374.3353,327.2825 373.7044,327.2825 Q372.3597,327.2825 371.6749,328.3492 Q370.9901,329.4158 370.9901,331.5159 Q370.9901,333.6077 371.6749,334.6744 Q372.3597,335.741 373.7044,335.741 Q374.3353,335.741 374.9288,335.4712 Q375.5223,335.2015 376.1531,334.6204 Z " fill="#000000"/><text fill="#000000" font-family="sans-serif" font-size="14" lengthAdjust="spacing" textLength="53.7715" x="387.68" y="336.491">Teacher</text><line style="stroke:#181818;stroke-width:0.5;" x1="359.68" x2="443.4515" y1="347.2" y2="347.2"/><line style="stroke:#181818;stroke-width:0.5;" x1="359.68" x2="443.4515" y1="355.2" y2="355.2"/></g><!--class Course--><g id="elem_Course"><rect codeLine="12" fill="#F1F1F1" height="97.4648" id="Course" rx="2.5" ry="2.5" style="stroke:#181818;stroke-width:0.5;" width="93.2109" x="237.96" y="464.93"/><ellipse cx="259.0671" cy="480.93" fill="#ADD1B2" rx="11" ry="11" style="stroke:#181818;stroke-width:1.0;"/><path d="M261.5402,487.0731 Q260.9592,487.3719 260.32,487.5213 Q259.6808,487.6707 258.9753,487.6707 Q256.4684,487.6707 255.1486,486.0189 Q253.8288,484.367 253.8288,481.2459 Q253.8288,478.1165 255.1486,476.4647 Q256.4684,474.8128 258.9753,474.8128 Q259.6808,474.8128 260.3283,474.9622 Q260.9758,475.1116 261.5402,475.4105 L261.5402,478.1331 Q260.9094,477.5521 260.3159,477.2823 Q259.7224,477.0125 259.0915,477.0125 Q257.7468,477.0125 257.062,478.0792 Q256.3771,479.1458 256.3771,481.2459 Q256.3771,483.3377 257.062,484.4044 Q257.7468,485.471 259.0915,485.471 Q259.7224,485.471 260.3159,485.2012 Q260.9094,484.9315 261.5402,484.3504 Z " fill="#000000"/><text fill="#000000" font-family="sans-serif" font-size="14" lengthAdjust="spacing" textLength="47.6396" x="274.4242" y="486.221">Course</text><line style="stroke:#181818;stroke-width:0.5;" x1="238.96" x2="330.1709" y1="496.93" y2="496.93"/><text fill="#000000" font-family="sans-serif" font-size="14" lengthAdjust="spacing" textLength="81.2109" x="243.96" y="514.4652">code: String</text><text fill="#000000" font-family="sans-serif" font-size="14" lengthAdjust="spacing" textLength="75.1953" x="243.96" y="530.9534">title: String</text><text fill="#000000" font-family="sans-serif" font-size="14" lengthAdjust="spacing" textLength="72.748" x="243.96" y="547.4417">credits: Int</text><line style="stroke:#181818;stroke-width:0.5;" x1="238.96" x2="330.1709" y1="554.3948" y2="554.3948"/></g><!--class Enrollment--><g id="elem_Enrollment"><rect codeLine="18" fill="#F1F1F1" height="97.4648" id="Enrollment" rx="2.5" ry="2.5" style="stroke:#181818;stroke-width:0.5;" width="183.124" x="7" y="290.46"/><ellipse cx="57.5654" cy="306.46" fill="#ADD1B2" rx="11" ry="11" style="stroke:#181818;stroke-width:1.0;"/><path d="M60.0386,312.6031 Q59.4575,312.9019 58.8184,313.0513 Q58.1792,313.2007 57.4736,313.2007 Q54.9668,313.2007 53.647,311.5489 Q52.3271,309.897 52.3271,306.7759 Q52.3271,303.6465 53.647,301.9947 Q54.9668,300.3428 57.4736,300.3428 Q58.1792,300.3428 58.8267,300.4922 Q59.4741,300.6416 60.0386,300.9405 L60.0386,303.6631 Q59.4077,303.0821 58.8142,302.8123 Q58.2207,302.5425 57.5898,302.5425 Q56.2451,302.5425 55.5603,303.6092 Q54.8755,304.6758 54.8755,306.7759 Q54.8755,308.8677 55.5603,309.9344 Q56.2451,311.001 57.5898,311.001 Q58.2207,311.001 58.8142,310.7312 Q59.4077,310.4615 60.0386,309.8804 Z " fill="#000000"/><text fill="#000000" font-family="sans-serif" font-size="14" lengthAdjust="spacing" textLength="73.4932" x="78.0654" y="311.751">Enrollment</text><line style="stroke:#181818;stroke-width:0.5;" x1="8" x2="189.124" y1="322.46" y2="322.46"/><text fill="#000000" font-family="sans-serif" font-size="14" lengthAdjust="spacing" textLength="65.6182" x="13" y="339.9952">grade: Int</text><text fill="#000000" font-family="sans-serif" font-size="14" lengthAdjust="spacing" textLength="115.1992" x="13" y="356.4834">enrolledOn: Date</text><text fill="#000000" font-family="sans-serif" font-size="14" lengthAdjust="spacing" textLength="171.124" x="13" y="372.9717">completedOn: Date [0..1]</text><line style="stroke:#181818;stroke-width:0.5;" x1="8" x2="189.124" y1="379.9248" y2="379.9248"/></g><!--class Department--><g id="elem_Department"><rect codeLine="24" fill="#F1F1F1" height="80.9766" id="Department" rx="2.5" ry="2.5" style="stroke:#181818;stroke-width:0.5;" width="114.9492" x="285.09" y="639.39"/><ellipse cx="301.1522" cy="655.39" fill="#ADD1B2" rx="11" ry="11" style="stroke:#181818;stroke-width:1.0;"/><path d="M303.6253,661.5331 Q303.0442,661.8319 302.4051,661.9813 Q301.7659,662.1307 301.0604,662.1307 Q298.5535,662.1307 297.2337,660.4789 Q295.9139,658.827 295.9139,655.7059 Q295.9139,652.5765 297.2337,650.9247 Q298.5535,649.2728 301.0604,649.2728 Q301.7659,649.2728 302.4134,649.4222 Q303.0608,649.5716 303.6253,649.8705 L303.6253,652.5931 Q302.9944,652.0121 302.4009,651.7423 Q301.8074,651.4725 301.1766,651.4725 Q299.8318,651.4725 299.147,652.5392 Q298.4622,653.6058 298.4622,655.7059 Q298.4622,657.7977 299.147,658.8644 Q299.8318,659.931 301.1766,659.931 Q301.8074,659.931 302.4009,659.6612 Q302.9944,659.3915 303.6253,658.8104 Z " fill="#000000"/><text fill="#000000" font-family="sans-serif" font-size="14" lengthAdjust="spacing" textLength="80.5889" x="315.3882" y="660.681">Department</text><line style="stroke:#181818;stroke-width:0.5;" x1="286.09" x2="399.0392" y1="671.39" y2="671.39"/><text fill="#000000" font-family="sans-serif" font-size="14" lengthAdjust="spacing" textLength="86.1191" x="291.09" y="688.9252">name: String</text><text fill="#000000" font-family="sans-serif" font-size="14" lengthAdjust="spacing" textLength="102.9492" x="291.09" y="705.4134">location: String</text><line style="stroke:#181818;stroke-width:0.5;" x1="286.09" x2="399.0392" y1="712.3666" y2="712.3666"/></g><!--class Program--><g id="elem_Program"><rect codeLine="29" fill="#F1F1F1" height="80.9766" id="Program" rx="2.5" ry="2.5" style="stroke:#181818;stroke-width:0.5;" width="98.1191" x="225.5" y="298.71"/><ellipse cx="244.4568" cy="314.71" fill="#ADD1B2" rx="11" ry="11" style="stroke:#181818;stroke-width:1.0;"/><path d="M246.93,320.8531 Q246.3489,321.1519 245.7098,321.3013 Q245.0706,321.4507 244.365,321.4507 Q241.8582,321.4507 240.5384,319.7989 Q239.2186,318.147 239.2186,315.0259 Q239.2186,311.8965 240.5384,310.2447 Q241.8582,308.5928 244.365,308.5928 Q245.0706,308.5928 245.7181,308.7422 Q246.3655,308.8916 246.93,309.1905 L246.93,311.9131 Q246.2991,311.3321 245.7056,311.0623 Q245.1121,310.7925 244.4813,310.7925 Q243.1365,310.7925 242.4517,311.8592 Q241.7669,312.9258 241.7669,315.0259 Q241.7669,317.1177 242.4517,318.1844 Q243.1365,319.251 244.4813,319.251 Q245.1121,319.251 245.7056,318.9812 Q246.2991,318.7115 246.93,318.1304 Z " fill="#000000"/><text fill="#000000" font-family="sans-serif" font-size="14" lengthAdjust="spacing" textLength="57.3262" x="259.3361" y="320.001">Program</text><line style="stroke:#181818;stroke-width:0.5;" x1="226.5" x2="322.6191" y1="330.71" y2="330.71"/><text fill="#000000" font-family="sans-serif" font-size="14" lengthAdjust="spacing" textLength="86.1191" x="231.5" y="348.2452">name: String</text><text fill="#000000" font-family="sans-serif" font-size="14" lengthAdjust="spacing" textLength="84.3486" x="231.5" y="364.7334">duration: Int</text><line style="stroke:#181818;stroke-width:0.5;" x1="226.5" x2="322.6191" y1="371.6866" y2="371.6866"/></g><!--reverse link Person to Student--><g id="link_Person_Student"><path codeLine="34" d="M306.8752,120.8991 C297.0252,141.4991 293.73,148.39 285.72,165.13 " fill="none" id="Person-backto-Student" style="stroke:#181818;stroke-width:1.0;"/><polygon fill="none" points="314.64,104.66,301.4622,118.3108,312.2882,123.4874,314.64,104.66" style="stroke:#181818;stroke-width:1.0;"/></g><!--reverse link Person to Teacher--><g id="link_Person_Teacher"><path codeLine="35" d="M352.482,122.3517 C366.372,183.4217 385.8,268.87 396.25,314.83 " fill="none" id="Person-backto-Teacher" style="stroke:#181818;stroke-width:1.0;"/><polygon fill="none" points="348.49,104.8,346.6315,123.6824,358.3326,121.0211,348.49,104.8" style="stroke:#181818;stroke-width:1.0;"/></g><!--link Student to Enrollment--><g id="link_Student_Enrollment"><path codeLine="37" d="M246.67,213.87 C222.35,234.29 186.27,264.57 155.82,290.13 " fill="none" id="Student-Enrollment" style="stroke:#181818;stroke-width:1.0;"/><text fill="#000000" font-family="sans-serif" font-size="13" lengthAdjust="spacing" textLength="42.7578" x="208.5" y="257.0284">enrolls</text><text fill="#000000" font-family="sans-serif" font-size="13" lengthAdjust="spacing" textLength="24.667" x="213.5224" y="233.8535">1..1</text><text fill="#000000" font-family="sans-serif" font-size="13" lengthAdjust="spacing" textLength="22.7119" x="140.3751" y="279.7661">0..*</text></g><!--link Enrollment to Course--><g id="link_Enrollment_Course"><path codeLine="38" d="M150.37,388.24 C177.68,413.55 210.91,444.37 237.48,469.01 " fill="none" id="Enrollment-Course" style="stroke:#181818;stroke-width:1.0;"/><text fill="#000000" font-family="sans-serif" font-size="13" lengthAdjust="spacing" textLength="41.9009" x="198.14" y="431.4984">course</text><text fill="#000000" font-family="sans-serif" font-size="13" lengthAdjust="spacing" textLength="22.7119" x="133.9014" y="408.4278">0..*</text><text fill="#000000" font-family="sans-serif" font-size="13" lengthAdjust="spacing" textLength="24.667" x="205.218" y="459.2663">1..1</text></g><!--link Teacher to Course--><g id="link_Teacher_Course"><path codeLine="40" d="M374.83,363.45 C359.3,377.98 340.17,397.7 326.56,417.93 C316.92,432.26 308.6,449.16 301.97,464.69 " fill="none" id="Teacher-Course" style="stroke:#181818;stroke-width:1.0;"/><text fill="#000000" font-family="sans-serif" font-size="13" lengthAdjust="spacing" textLength="47.8804" x="327.56" y="431.4984">teaches</text><text fill="#000000" font-family="sans-serif" font-size="13" lengthAdjust="spacing" textLength="22.7119" x="343.7187" y="383.7953">0..*</text><text fill="#000000" font-family="sans-serif" font-size="13" lengthAdjust="spacing" textLength="22.7119" x="280.9207" y="454.3388">0..*</text></g><!--link Teacher to Department--><g id="link_Teacher_Department"><path codeLine="41" d="M399.28,363.43 C394.43,410.3 381.94,519.37 362.56,609.39 C360.47,619.09 357.77,629.42 355.03,639.07 " fill="none" id="Teacher-Department" style="stroke:#181818;stroke-width:1.0;"/><text fill="#000000" font-family="sans-serif" font-size="13" lengthAdjust="spacing" textLength="66.9297" x="387.76" y="518.7284">belongs to</text><text fill="#000000" font-family="sans-serif" font-size="13" lengthAdjust="spacing" textLength="22.7119" x="374.1284" y="383.7704">0..*</text><text fill="#000000" font-family="sans-serif" font-size="13" lengthAdjust="spacing" textLength="24.667" x="331.1623" y="628.663">1..1</text></g><!--link Course to Department--><g id="link_Course_Department"><path codeLine="43" d="M301.49,562.6 C310.05,586.84 320.32,615.91 328.45,638.92 " fill="none" id="Course-Department" style="stroke:#181818;stroke-width:1.0;"/><text fill="#000000" font-family="sans-serif" font-size="13" lengthAdjust="spacing" textLength="36.7339" x="318.03" y="605.9584">offers</text><text fill="#000000" font-family="sans-serif" font-size="13" lengthAdjust="spacing" textLength="22.7119" x="280.3732" y="583.1267">0..*</text><text fill="#000000" font-family="sans-serif" font-size="13" lengthAdjust="spacing" textLength="24.667" x="300.3411" y="628.7901">1..1</text></g><!--link Student to Program--><g id="link_Student_Program"><path codeLine="44" d="M274.56,213.87 C274.56,236.57 274.56,271.45 274.56,298.49 " fill="none" id="Student-Program" style="stroke:#181818;stroke-width:1.0;"/><text fill="#000000" font-family="sans-serif" font-size="13" lengthAdjust="spacing" textLength="67.4946" x="275.56" y="257.0284">enrolled in</text><text fill="#000000" font-family="sans-serif" font-size="13" lengthAdjust="spacing" textLength="22.7119" x="250.0985" y="233.8535">0..*</text><text fill="#000000" font-family="sans-serif" font-size="13" lengthAdjust="spacing" textLength="24.667" x="248.6278" y="288.0996">0..1</text></g><!--SRC=[VL6nJWCn3Dtz5TQDIAte6h5H1YOgbGqnXCGz8kMIAl5DXNydbylbKgZORESz-xqNPMMCUA0GlSCB81ejyDbngfmSIE2HWt5zQccGnjR-6q1bwf57JOxnWdNqIb9zKcX7ZtuCaV81vNMxbWtRjbU1jE4uYwZy9nUyjKC-b41zaDEIMIVbDz8lJk1UCkKRmzaIhpDykzzkT-_hmZsTPU2wy9TNwvLauzrVkuVWq_7X5acFeP2Az9BgmzTciyHqDIiv0ImPThiaiiFqr2MvTrrhMnIV4PfXWKs4cLfo5Yc1gG1O_g91pbL5SaR4MyXvPnELm0-otlKHsGEK5VyJ_EcKBAyMhtGay1AegF-8ni4F]--></g></svg>