<svg xmlns="http://www.w3.org/2000/svg" xmlns:xlink="http://www.w3.org/1999/xlink" contentStyleType="text/css" height="743px" preserveAspectRatio="none" style="width:462px;height:743px;background:#FFFFFF;" version="1.1" viewBox="0 0 462 743" width="462px" zoomAndPan="magnify"><defs/><g><!--class Person--><g id="elem_Person"><rect codeLine="2" fill="#F1F1F1" height="113.9531" id="Person" rx="2.5" ry="2.5" style="stroke:#181818;stroke-width:0.5;" width="148.5479" x="263.29" y="7"/><ellipse cx="310.4682" cy="23" fill="#ADD1B2" rx="11" ry="11" style="stroke:#181818;stroke-width:1.0;"/><path d="M312.9414,29.1431 Q312.3603,29.4419 311.7212,29.5913 Q311.082,29.7407 310.3764,29.7407 Q307.8696,29.7407 306.5498,28.0889 Q305.2299,26.437 305.2299,23.3159 Q305.2299,20.1865 306.5498,18.5347 Q307.8696,16.8828 310.3764,16.8828 Q311.082,16.8828 311.7295,17.0322 Q312.3769,17.1816 312.9414,17.4805 L312.9414,20.2031 Q312.3105,19.6221 311.717,19.3523 Q311.1235,19.0825 310.4926,19.0825 Q309.1479,19.0825 308.4631,20.1492 Q307.7783,21.2158 307.7783,23.3159 Q307.7783,25.4077 308.4631,26.4744 Q309.1479,27.541 310.4926,27.541 Q311.1235,27.541 311.717,27.2712 Q312.3105,27.0015 312.9414,26.4204 Z " fill="#000000"/><text fill="#000000" font-family="sans-serif" font-size="14" lengthAdjust="spacing" textLength="45.6914" x="330.9682" y="28.291">Person</text><line style="stroke:#181818;stroke-width:0.5;" x1="264.29" x2="410.8379" y1="39" y2="39"/><text fill="#000000" font-family="sans-serif" font-size="14" lengthAdjust="spacing" textLength="39.6758" x="269.29" y="56.5352">id: Int</text><text fill="#000000" font-family="sans-serif" font-size="14" lengthAdjust="spacing" textLength="86.1191" x="269.29" y="73.0234">name: String</text><text fill="#000000" font-family="sans-serif" font-size="14" lengthAdjust="spacing" textLength="85.5244" x="269.29" y="89.5117">email: String</text><text fill="#000000" font-family="sans-serif" font-size="14" lengthAdjust="spacing" textLength="136.5479" x="269.29" y="106">phones: String [0..*]</text><line style="stroke:#181818;stroke-width:0.5;" x1="264.29" x2="410.8379" y1="112.9531" y2="112.9531"/></g><!--class Student--><g id="elem_Student"><rect codeLine="9" fill="#F1F1F1" height="48" id="Student" rx="2.5" ry="2.5" style="stroke:#181818;stroke-width:0.5;" width="84.001" x="232.56" y="181.95"/><ellipse cx="247.56" cy="197.95" fill="#ADD1B2" rx="11" ry="11" style="stroke:#181818;stroke-width:1.0;"/><path d="M250.0331,204.0931 Q249.4521,204.3919 248.8129,204.5413 Q248.1738,204.6907 247.4682,204.6907 Q244.9614,204.6907 243.6415,203.0389 Q242.3217,201.387 242.3217,198.2659 Q242.3217,195.1365 243.6415,193.4847 Q244.9614,191.8328 247.4682,191.8328 Q248.1738,191.8328 248.8212,191.9822 Q249.4687,192.1316 250.0331,192.4305 L250.0331,195.1531 Q249.4023,194.5721 248.8088,194.3023 Q248.2153,194.0325 247.5844,194.0325 Q246.2397,194.0325 245.5549,195.0992 Q244.8701,196.1658 244.8701,198.2659 Q244.8701,200.3577 245.5549,201.4244 Q246.2397,202.491 247.5844,202.491 Q248.2153,202.491 248.8088,202.2212 Q249.4023,201.9515 250.0331,201.3704 Z " fill="#000000"/><text fill="#000000" font-family="sans-serif" font-size="14" lengthAdjust="spacing" textLength="52.001" x="261.56" y="203.241">Student</text><line style="stroke:#181818;stroke-width:0.5;" x1="233.56" x2="315.561" y1="213.95" y2="213.95"/><line style="stroke:#181818;stroke-width:0.5;" x1="233.56" x2="315.561" y1="221.95" y2="221.95"/></g><!--class Teacher--><g id="elem_Teacher"><rect codeLine="11" fill="#F1F1F1" height="48" id="Teacher" rx="2.5" ry="2.5" style="stroke:#181818;stroke-width:0.5;" width="85.7715" x="358.68" y="331.69"/><ellipse cx="373.68" cy="347.69" fill="#ADD1B2" rx="11" ry="11" style="stroke:#181818;stroke-width:1.0;"/><path d="M376.1531,353.8331 Q375.5721,354.1319 374.9329,354.2813 Q374.2938,354.4307 373.5882,354.4307 Q371.0814,354.4307 369.7615,352.7789 Q368.4417,351.127 368.4417,348.0059 Q368.4417,344.8765 369.7615,343.2247 Q371.0814,341.5728 373.5882,341.5728 Q374.2938,341.5728 374.9412,341.7222 Q375.5887,341.8716 376.1531,342.1705 L376.1531,344.8931 Q375.5223,344.3121 374.9288,344.0423 Q374.3353,343.7725 373.7044,343.7725 Q372.3597,343.7725 371.6749,344.8392 Q370.9901,345.9058 370.9901,348.0059 Q370.9901,350.0977 371.6749,351.1644 Q372.3597,352.231 373.7044,352.231 Q374.3353,352.231 374.9288,351.9612 Q375.5223,351.6915 376.1531,351.1104 Z " fill="#000000"/><text fill="#000000" font-family="sans-serif" font-size="14" lengthAdjust="spacing" textLength="53.7715" x="387.68" y="352.981">Teacher</text><line style="stroke:#181818;stroke-width:0.5;" x1="359.68" x2="443.4515" y1="363.69" y2="363.69"/><line style="stroke:#181818;stroke-width:0.5;" x1="359.68" x2="443.4515" y1="371.69" y2="371.69"/></g><!--class Course--><g id="elem_Course"><rect codeLine="13" fill="#F1F1F1" height="97.4648" id="Course" rx="2.5" ry="2.5" style="stroke:#181818;stroke-width:0.5;" width="93.2109" x="237.96" y="481.42"/><ellipse cx="259.0671" cy="497.42" fill="#ADD1B2" rx="11" ry="11" style="stroke:#181818;stroke-width:1.0;"/><path d="M261.5402,503.5631 Q260.9592,503.8619 260.32,504.0113 Q259.6808,504.1607 258.9753,504.1607 Q256.4684,504.1607 255.1486,502.5089 Q253.8288,500.857 253.8288,497.7359 Q253.8288,494.6065 255.1486,492.9547 Q256.4684,491.3028 258.9753,491.3028 Q259.6808,491.3028 260.3283,491.4522 Q260.9758,491.6016 261.5402,491.9005 L261.5402,494.6231 Q260.9094,494.0421 260.3159,493.7723 Q259.7224,493.5025 259.0915,493.5025 Q257.7468,493.5025 257.062,494.5692 Q256.3771,495.6358 256.3771,497.7359 Q256.3771,499.8277 257.062,500.8944 Q257.7468,501.961 259.0915,501.961 Q259.7224,501.961 260.3159,501.6912 Q260.9094,501.4215 261.5402,500.8404 Z " fill="#000000"/><text fill="#000000" font-family="sans-serif" font-size="14" lengthAdjust="spacing" textLength="47.6396" x="274.4242" y="502.711">Course</text><line style="stroke:#181818;stroke-width:0.5;" x1="238.96" x2="330.1709" y1="513.42" y2="513.42"/><text fill="#000000" font-family="sans-serif" font-size="14" lengthAdjust="spacing" textLength="81.2109" x="243.96" y="530.9552">code: String</text><text fill="#000000" font-family="sans-serif" font-size="14" lengthAdjust="spacing" textLength="75.1953" x="243.96" y="547.4434">title: String</text><text fill="#000000" font-family="sans-serif" font-size="14" lengthAdjust="spacing" textLength="72.748" x="243.96" y="563.9317">credits: Int</text><line style="stroke:#181818;stroke-width:0.5;" x1="238.96" x2="330.1709" y1="570.8848" y2="570.8848"/></g><!--class Enrollment--><g id="elem_Enrollment"><rect codeLine="19" fill="#F1F1F1" height="97.4648" id="Enrollment" rx="2.5" ry="2.5" style="stroke:#181818;stroke-width:0.5;" width="183.124" x="7" y="306.95"/><ellipse cx="57.5654" cy="322.95" fill="#ADD1B2" rx="11" ry="11" style="stroke:#181818;stroke-width:1.0;"/><path d="M60.0386,329.0931 Q59.4575,329.3919 58.8184,329.5413 Q58.1792,329.6907 57.4736,329.6907 Q54.9668,329.6907 53.647,328.0389 Q52.3271,326.387 52.3271,323.2659 Q52.3271,320.1365 53.647,318.4847 Q54.9668,316.8328 57.4736,316.8328 Q58.1792,316.8328 58.8267,316.9822 Q59.4741,317.1316 60.0386,317.4305 L60.0386,320.1531 Q59.4077,319.5721 58.8142,319.3023 Q58.2207,319.0325 57.5898,319.0325 Q56.2451,319.0325 55.5603,320.0992 Q54.8755,321.1658 54.8755,323.2659 Q54.8755,325.3577 55.5603,326.4244 Q56.2451,327.491 57.5898,327.491 Q58.2207,327.491 58.8142,327.2212 Q59.4077,326.9515 60.0386,326.3704 Z " fill="#000000"/><text fill="#000000" font-family="sans-serif" font-size="14" lengthAdjust="spacing" textLength="73.4932" x="78.0654" y="328.241">Enrollment</text><line style="stroke:#181818;stroke-width:0.5;" x1="8" x2="189.124" y1="338.95" y2="338.95"/><text fill="#000000" font-family="sans-serif" font-size="14" lengthAdjust="spacing" textLength="65.6182" x="13" y="356.4852">grade: Int</text><text fill="#000000" font-family="sans-serif" font-size="14" lengthAdjust="spacing" textLength="115.1992" x="13" y="372.9734">enrolledOn: Date</text><text fill="#000000" font-family="sans-serif" font-size="14" lengthAdjust="spacing" textLength="171.124" x="13" y="389.4617">completedOn: Date [0..1]</text><line style="stroke:#181818;stroke-width:0.5;" x1="8" x2="189.124" y1="396.4148" y2="396.4148"/></g><!--class Department--><g id="elem_Department"><rect codeLine="25" fill="#F1F1F1" height="80.9766" id="Department" rx="2.5" ry="2.5" style="stroke:#181818;stroke-width:0.5;" width="114.9492" x="285.09" y="655.88"/><ellipse cx="301.1522" cy="671.88" fill="#ADD1B2" rx="11" ry="11" style="stroke:#181818;stroke-width:1.0;"/><path d="M303.6253,678.0231 Q303.0442,678.3219 302.4051,678.4713 Q301.7659,678.6207 301.0604,678.6207 Q298.5535,678.6207 297.2337,676.9689 Q295.9139,675.317 295.9139,672.1959 Q295.9139,669.0665 297.2337,667.4147 Q298.5535,665.7628 301.0604,665.7628 Q301.7659,665.7628 302.4134,665.9122 Q303.0608,666.0616 303.6253,666.3605 L303.6253,669.0831 Q302.9944,668.5021 302.4009,668.2323 Q301.8074,667.9625 301.1766,667.9625 Q299.8318,667.9625 299.147,669.0292 Q298.4622,670.0958 298.4622,672.1959 Q298.4622,674.2877 299.147,675.3544 Q299.8318,676.421 301.1766,676.421 Q301.8074,676.421 302.4009,676.1512 Q302.9944,675.8815 303.6253,675.3004 Z " fill="#000000"/><text fill="#000000" font-family="sans-serif" font-size="14" lengthAdjust="spacing" textLength="80.5889" x="315.3882" y="677.171">Department</text><line style="stroke:#181818;stroke-width:0.5;" x1="286.09" x2="399.0392" y1="687.88" y2="687.88"/><text fill="#000000" font-family="sans-serif" font-size="14" lengthAdjust="spacing" textLength="86.1191" x="291.09" y="705.4152">name: String</text><text fill="#000000" font-family="sans-serif" font-size="14" lengthAdjust="spacing" textLength="102.9492" x="291.09" y="721.9034">location: String</text><line style="stroke:#181818;stroke-width:0.5;" x1="286.09" x2="399.0392" y1="728.8566" y2="728.8566"/></g><!--class Program--><g id="elem_Program"><rect codeLine="30" fill="#F1F1F1" height="80.9766" id="Program" rx="2.5" ry="2.5" style="stroke:#181818;stroke-width:0.5;" width="98.1191" x="225.5" y="315.2"/><ellipse cx="244.4568" cy="331.2" fill="#ADD1B2" rx="11" ry="11" style="stroke:#181818;stroke-width:1.0;"/><path d="M246.93,337.3431 Q246.3489,337.6419 245.7098,337.7913 Q245.0706,337.9407 244.365,337.9407 Q241.8582,337.9407 240.5384,336.2889 Q239.2186,334.637 239.2186,331.5159 Q239.2186,328.3865 240.5384,326.7347 Q241.8582,325.0828 244.365,325.0828 Q245.0706,325.0828 245.7181,325.2322 Q246.3655,325.3816 246.93,325.6805 L246.93,328.4031 Q246.2991,327.8221 245.7056,327.5523 Q245.1121,327.2825 244.4813,327.2825 Q243.1365,327.2825 242.4517,328.3492 Q241.7669,329.4158 241.7669,331.5159 Q241.7669,333.6077 242.4517,334.6744 Q243.1365,335.741 244.4813,335.741 Q245.1121,335.741 245.7056,335.4712 Q246.2991,335.2015 246.93,334.6204 Z " fill="#000000"/><text fill="#000000" font-family="sans-serif" font-size="14" lengthAdjust="spacing" textLength="57.3262" x="259.3361" y="336.491">Program</text><line style="stroke:#181818;stroke-width:0.5;" x1="226.5" x2="322.6191" y1="347.2" y2="347.2"/><text fill="#000000" font-family="sans-serif" font-size="14" lengthAdjust="spacing" textLength="86.1191" x="231.5" y="364.7352">name: String</text><text fill="#000000" font-family="sans-serif" font-size="14" lengthAdjust="spacing" textLength="84.3486" x="231.5" y="381.2234">duration: Int</text><line style="stroke:#181818;stroke-width:0.5;" x1="226.5" x2="322.6191" y1="388.1766" y2="388.1766"/></g><!--reverse link Person to Student--><g id="link_Person_Student"><path codeLine="35" d="M304.9118,137.5139 C295.3918,158.6639 292.48,165.15 285.04,181.67 " fill="none" id="Person-backto-Student" style="stroke:#181818;stroke-width:1.0;"/><polygon fill="none" points="312.3,121.1,299.4405,135.0511,310.3831,139.9766,312.3,121.1" style="stroke:#181818;stroke-width:1.0;"/></g><!--reverse link Person to Teacher--><g id="link_Person_Teacher"><path codeLine="36" d="M353.862,138.7564 C367.962,202.5964 386.43,286.2 396.43,331.47 " fill="none" id="Person-backto-Teacher" style="stroke:#181818;stroke-width:1.0;"/><polygon fill="none" points="349.98,121.18,348.0032,140.0504,359.7208,137.4624,349.98,121.18" style="stroke:#181818;stroke-width:1.0;"/></g><!--link Student to Enrollment--><g id="link_Student_Enrollment"><path codeLine="38" d="M246.67,230.36 C222.35,250.78 186.27,281.06 155.82,306.62 " fill="none" id="Student-Enrollment" style="stroke:#181818;stroke-width:1.0;"/><text fill="#000000" font-family="sans-serif" font-size="13" lengthAdjust="spacing" textLength="42.7578" x="208.5" y="273.5184">enrolls</text><text fill="#000000" font-family="sans-serif" font-size="13" lengthAdjust="spacing" textLength="24.667" x="213.5224" y="250.3435">1..1</text><text fill="#000000" font-family="sans-serif" font-size="13" lengthAdjust="spacing" textLength="22.7119" x="140.3751" y="296.2561">0..*</text></g><!--link Enrollment to Course--><g id="link_Enrollment_Course"><path codeLine="39" d="M150.37,404.73 C177.68,430.04 210.91,460.86 237.48,485.5 " fill="none" id="Enrollment-Course" style="stroke:#181818;stroke-width:1.0;"/><text fill="#000000" font-family="sans-serif" font-size="13" lengthAdjust="spacing" textLength="41.9009" x="198.14" y="447.9884">course</text><text fill="#000000" font-family="sans-serif" font-size="13" lengthAdjust="spacing" textLength="22.7119" x="133.9014" y="424.9178">0..*</text><text fill="#000000" font-family="sans-serif" font-size="13" lengthAdjust="spacing" textLength="24.667" x="205.218" y="475.7563">1..1</text></g><!--link Teacher to Course--><g id="link_Teacher_Course"><path codeLine="41" d="M374.83,379.94 C359.3,394.47 340.17,414.19 326.56,434.42 C316.92,448.75 308.6,465.65 301.97,481.18 " fill="none" id="Teacher-Course" style="stroke:#181818;stroke-width:1.0;"/><text fill="#000000" font-family="sans-serif" font-size="13" lengthAdjust="spacing" textLength="47.8804" x="327.56" y="447.9884">teaches</text><text fill="#000000" font-family="sans-serif" font-size="13" lengthAdjust="spacing" textLength="22.7119" x="343.7187" y="400.2853">0..*</text><text fill="#000000" font-family="sans-serif" font-size="13" lengthAdjust="spacing" textLength="22.7119" x="280.9207" y="470.8288">0..*</text></g><!--link Teacher to Department--><g id="link_Teacher_Department"><path codeLine="42" d="M399.28,379.92 C394.43,426.79 381.94,535.86 362.56,625.88 C360.47,635.58 357.77,645.91 355.03,655.56 " fill="none" id="Teacher-Department" style="stroke:#181818;stroke-width:1.0;"/><text fill="#000000" font-family="sans-serif" font-size="13" lengthAdjust="spacing" textLength="66.9297" x="387.76" y="535.2184">belongs to</text><text fill="#000000" font-family="sans-serif" font-size="13" lengthAdjust="spacing" textLength="22.7119" x="374.1284" y="400.2604">0..*</text><text fill="#000000" font-family="sans-serif" font-size="13" lengthAdjust="spacing" textLength="24.667" x="331.1623" y="645.153">1..1</text></g><!--link Course to Department--><g id="link_Course_Department"><path codeLine="44" d="M301.49,579.09 C310.05,603.33 320.32,632.4 328.45,655.41 " fill="none" id="Course-Department" style="stroke:#181818;stroke-width:1.0;"/><text fill="#000000" font-family="sans-serif" font-size="13" lengthAdjust="spacing" textLength="36.7339" x="318.03" y="622.4484">offers</text><text fill="#000000" font-family="sans-serif" font-size="13" lengthAdjust="spacing" textLength="22.7119" x="280.3732" y="599.6167">0..*</text><text fill="#000000" font-family="sans-serif" font-size="13" lengthAdjust="spacing" textLength="24.667" x="300.3411" y="645.2801">1..1</text></g><!--link Student to Program--><g id="link_Student_Program"><path codeLine="45" d="M274.56,230.36 C274.56,253.06 274.56,287.94 274.56,314.98 " fill="none" id="Student-Program" style="stroke:#181818;stroke-width:1.0;"/><text fill="#000000" font-family="sans-serif" font-size="13" lengthAdjust="spacing" textLength="67.4946" x="275.56" y="273.5184">enrolled in</text><text fill="#000000" font-family="sans-serif" font-size="13" lengthAdjust="spacing" textLength="22.7119" x="250.0985" y="250.3435">0..*</text><text fill="#000000" font-family="sans-serif" font-size="13" lengthAdjust="spacing" textLength="24.667" x="248.6278" y="304.5896">0..1</text></g><!--SRC=[VL6nRWCX3Dtz5TQDbH8rA-hMTEZKIEbMTQ3WN90uE85lIlllvJYEa2hgPZ_UivyVoieOyK0XUeSNG3HQuAlZL3avaC0Z1-FwrD8WZMtwyUmTnHN0ZyVjzk4JVW1K7ddaIPDZl625tacgCuKMUlPJY9GNAw_RTMpOjhqAf0t7nLpLlxZWhHtoeaJgWvo7BFuflv5-SmBtaYdl64PBVCMoxLrZUq-Z35m7_id0UYNPU5UXgZi4dvOFzqHw2aLKh9UqdxutcpMc6wpa1B1csEsIoGxJKpUdtBLdYt9dX0Oij5cmI4lE8YKm5m3hNpJCfQfCpenuZxdCRA8I-4NMkpuYUu0oud-1FvtIoTSJRtmayXgegF-8ni4l]--></g></svg>