<?xml version="1.0" encoding="utf-8"?>
<svg xmlns="http://www.w3.org/2000/svg" width="1103.9957275390625" height="621.6774291992188" viewBox="-669.018310546875 -202.62379455566406 1103.9957275390625 621.6774291992188">
  <title>Neo4j Graph Visualization</title>
  <desc>Created using Neo4j (http://www.neo4j.com/)</desc>
  <g class="layer relationships">
    <g class="relationship" transform="translate(396.6533046463395 -66.23575714079828) rotate(180.9626779624959)">
      <path class="b-outline" fill="#A5ABB6" stroke="none" d="M 25 0.5 L 135.11114732250576 0.5 L 135.11114732250576 -0.5 L 25 -0.5 Z M 173.55645982250576 0.5 L 283.6676071450115 0.5 L 283.6676071450115 3.5 L 290.6676071450115 0 L 283.6676071450115 -3.5 L 283.6676071450115 -0.5 L 173.55645982250576 -0.5 Z"/>
      <text text-anchor="middle" pointer-events="none" font-size="8px" fill="#000000" x="154.33380357250576" y="3" transform="rotate(180 154.33380357250576 0)" font-family="Helvetica Neue, Helvetica, Arial, sans-serif" style="white-space: pre;">OFFERS</text>
    </g>
    <g class="relationship" transform="translate(394.23795704859094 162.93167606199512) rotate(539.7592542685284)">
      <path class="b-outline" fill="#A5ABB6" stroke="none" d="M 25 0.5 L 145.41429247581024 0.5 L 145.41429247581024 -0.5 L 25 -0.5 Z M 183.85960497581024 0.5 L 304.2738974516205 0.5 L 304.2738974516205 3.5 L 311.2738974516205 0 L 304.2738974516205 -3.5 L 304.2738974516205 -0.5 L 183.85960497581024 -0.5 Z"/>
      <text text-anchor="middle" pointer-events="none" font-size="8px" fill="#000000" x="164.63694872581024" y="3" transform="rotate(180 164.63694872581024 0)" font-family="Helvetica Neue, Helvetica, Arial, sans-serif" style="white-space: pre;">OFFERS</text>
    </g>
    <g class="relationship" transform="translate(-425.01284315552857 372.27147985774013) rotate(180.20912640562062)">
      <path class="b-outline" fill="#A5ABB6" stroke="none" d="M 25 0.5 L 49.10533072486153 0.5 L 49.10533072486153 -0.5 L 25 -0.5 Z M 156.46470572486152 0.5 L 180.57003644972306 0.5 L 180.57003644972306 3.5 L 187.57003644972306 0 L 180.57003644972306 -3.5 L 180.57003644972306 -0.5 L 156.46470572486152 -0.5 Z"/>
      <text text-anchor="middle" pointer-events="none" font-size="8px" fill="#000000" x="102.78501822486153" y="3" transform="rotate(180 102.78501822486153 0)" font-family="Helvetica Neue, Helvetica, Arial, sans-serif" style="white-space: pre;">ENROLLED_IN_PROGRAM</text>
    </g>
    <g class="relationship" transform="translate(-425.01284315552857 372.27147985774013) rotate(360.6607320865725)">
      <path class="b-outline" fill="#A5ABB6" stroke="none" d="M 25 0.5 L 74.62023827097154 0.5 L 74.62023827097154 -0.5 L 25 -0.5 Z M 144.64367577097153 0.5 L 194.26391404194308 0.5 L 194.26391404194308 3.5 L 201.26391404194308 0 L 194.26391404194308 -3.5 L 194.26391404194308 -0.5 L 144.64367577097153 -0.5 Z"/>
      <text text-anchor="middle" pointer-events="none" font-size="8px" fill="#000000" x="109.63195702097154" y="3" font-family="Helvetica Neue, Helvetica, Arial, sans-serif" style="white-space: pre;">HAS_ENROLLED</text>
    </g>
    <g class="relationship" transform="translate(-426.78503116447416 159.95659701599573) rotate(538.8670630293977)">
      <path class="b-outline" fill="#A5ABB6" stroke="none" d="M 25 0.5 L 49.45780512625707 0.5 L 49.45780512625707 -0.5 L 25 -0.5 Z M 156.81718012625709 0.5 L 181.27498525251414 0.5 L 181.27498525251414 3.5 L 188.27498525251414 0 L 181.27498525251414 -3.5 L 181.27498525251414 -0.5 L 156.81718012625709 -0.5 Z"/>
      <text text-anchor="middle" pointer-events="none" font-size="8px" fill="#000000" x="103.13749262625707" y="3" transform="rotate(180 103.13749262625707 0)" font-family="Helvetica Neue, Helvetica, Arial, sans-serif" style="white-space: pre;">ENROLLED_IN_PROGRAM</text>
    </g>
    <g class="relationship" transform="translate(-426.78503116447416 159.95659701599573) rotate(359.9896973880748)">
      <path class="b-outline" fill="#A5ABB6" stroke="none" d="M 25 0.5 L 69.90863302233754 0.5 L 69.90863302233754 -0.5 L 25 -0.5 Z M 139.93207052233754 0.5 L 184.84070354467508 0.5 L 184.84070354467508 3.5 L 191.84070354467508 0 L 184.84070354467508 -3.5 L 184.84070354467508 -0.5 L 139.93207052233754 -0.5 Z"/>
      <text text-anchor="middle" pointer-events="none" font-size="8px" fill="#000000" x="104.92035177233754" y="3" font-family="Helvetica Neue, Helvetica, Arial, sans-serif" style="white-space: pre;">HAS_ENROLLED</text>
    </g>
    <g class="relationship" transform="translate(-430.59453051111416 -78.51099421076472) rotate(180.11465304121714)">
      <path class="b-outline" fill="#A5ABB6" stroke="none" d="M 25 0.5 L 45.76510777726152 0.5 L 45.76510777726152 -0.5 L 25 -0.5 Z M 153.1244827772615 0.5 L 173.88959055452304 0.5 L 173.88959055452304 3.5 L 180.88959055452304 0 L 173.88959055452304 -3.5 L 173.88959055452304 -0.5 L 153.1244827772615 -0.5 Z"/>
      <text text-anchor="middle" pointer-events="none" font-size="8px" fill="#000000" x="99.44479527726152" y="3" transform="rotate(180 99.44479527726152 0)" font-family="Helvetica Neue, Helvetica, Arial, sans-serif" style="white-space: pre;">ENROLLED_IN_PROGRAM</text>
    </g>
    <g class="relationship" transform="translate(-430.59453051111416 -78.51099421076472) rotate(360.62336427327915)">
      <path class="b-outline" fill="#A5ABB6" stroke="none" d="M 25 0.5 L 66.9737972517771 0.5 L 66.9737972517771 -0.5 L 25 -0.5 Z M 136.9972347517771 0.5 L 178.9710320035542 0.5 L 178.9710320035542 3.5 L 185.9710320035542 0 L 178.9710320035542 -3.5 L 178.9710320035542 -0.5 L 136.9972347517771 -0.5 Z"/>
      <text text-anchor="middle" pointer-events="none" font-size="8px" fill="#000000" x="101.9855160017771" y="3" font-family="Helvetica Neue, Helvetica, Arial, sans-serif" style="white-space: pre;">HAS_ENROLLED</text>
    </g>
    <g class="relationship" transform="translate(217.93474848761707 282.6828713633961) rotate(509.4374450799462)">
      <path class="b-outline" fill="#A5ABB6" stroke="none" d="M 25 0.5 L 67.95850563469274 0.5 L 67.95850563469274 -0.5 L 25 -0.5 Z M 111.74366188469274 0.5 L 154.70216751938548 0.5 L 154.70216751938548 3.5 L 161.70216751938548 0 L 154.70216751938548 -3.5 L 154.70216751938548 -0.5 L 111.74366188469274 -0.5 Z"/>
      <text text-anchor="middle" pointer-events="none" font-size="8px" fill="#000000" x="89.85108375969274" y="3" transform="rotate(180 89.85108375969274 0)" font-family="Helvetica Neue, Helvetica, Arial, sans-serif" style="white-space: pre;">TEACHES</text>
    </g>
    <g class="relationship" transform="translate(217.93474848761707 282.6828713633961) rotate(216.49267535315653)">
      <path class="b-outline" fill="#A5ABB6" stroke="none" d="M 25 0.5 L 74.0981388615199 0.5 L 74.0981388615199 -0.5 L 25 -0.5 Z M 117.8832951115199 0.5 L 166.9814339730398 0.5 L 166.9814339730398 3.5 L 173.9814339730398 0 L 166.9814339730398 -3.5 L 166.9814339730398 -0.5 L 117.8832951115199 -0.5 Z"/>
      <text text-anchor="middle" pointer-events="none" font-size="8px" fill="#000000" x="95.9907169865199" y="3" transform="rotate(180 95.9907169865199 0)" font-family="Helvetica Neue, Helvetica, Arial, sans-serif" style="white-space: pre;">TEACHES</text>
    </g>
    <g class="relationship" transform="translate(217.93474848761707 282.6828713633961) rotate(387.6383970033178)">
      <path class="b-outline" fill="#A5ABB6" stroke="none" d="M 25 0.5 L 72.58290118777434 0.5 L 72.58290118777434 -0.5 L 25 -0.5 Z M 132.68055743777433 0.5 L 180.26345862554868 0.5 L 180.26345862554868 3.5 L 187.26345862554868 0 L 180.26345862554868 -3.5 L 180.26345862554868 -0.5 L 132.68055743777433 -0.5 Z"/>
      <text text-anchor="middle" pointer-events="none" font-size="8px" fill="#000000" x="102.63172931277434" y="3" font-family="Helvetica Neue, Helvetica, Arial, sans-serif" style="white-space: pre;">BELONGS_TO</text>
    </g>
    <g class="relationship" transform="translate(159.57537032058625 35.82607168287589) rotate(233.81198159974804)">
      <path class="b-outline" fill="#A5ABB6" stroke="none" d="M 25 0.5 L 41.12182517605663 0.5 L 41.12182517605663 -0.5 L 25 -0.5 Z M 84.90698142605663 0.5 L 101.02880660211326 0.5 L 101.02880660211326 3.5 L 108.02880660211326 0 L 101.02880660211326 -3.5 L 101.02880660211326 -0.5 L 84.90698142605663 -0.5 Z"/>
      <text text-anchor="middle" pointer-events="none" font-size="8px" fill="#000000" x="63.01440330105663" y="3" transform="rotate(180 63.01440330105663 0)" font-family="Helvetica Neue, Helvetica, Arial, sans-serif" style="white-space: pre;">TEACHES</text>
    </g>
    <g class="relationship" transform="translate(159.57537032058625 35.82607168287589) rotate(336.70816734643245)">
      <path class="b-outline" fill="#A5ABB6" stroke="none" d="M 25 0.5 L 95.5079073123641 0.5 L 95.5079073123641 -0.5 L 25 -0.5 Z M 155.6055635623641 0.5 L 226.1134708747282 0.5 L 226.1134708747282 3.5 L 233.1134708747282 0 L 226.1134708747282 -3.5 L 226.1134708747282 -0.5 L 155.6055635623641 -0.5 Z"/>
      <text text-anchor="middle" pointer-events="none" font-size="8px" fill="#000000" x="125.5567354373641" y="3" font-family="Helvetica Neue, Helvetica, Arial, sans-serif" style="white-space: pre;">BELONGS_TO</text>
    </g>
    <g class="relationship" transform="translate(312.2480358140125 -173.6237937348119) rotate(516.1781642351057)">
      <path class="b-outline" fill="#A5ABB6" stroke="none" d="M 25 0.5 L 100.98275764567947 0.5 L 100.98275764567947 -0.5 L 25 -0.5 Z M 144.76791389567947 0.5 L 220.75067154135894 0.5 L 220.75067154135894 3.5 L 227.75067154135894 0 L 220.75067154135894 -3.5 L 220.75067154135894 -0.5 L 144.76791389567947 -0.5 Z"/>
      <text text-anchor="middle" pointer-events="none" font-size="8px" fill="#000000" x="122.87533577067947" y="3" transform="rotate(180 122.87533577067947 0)" font-family="Helvetica Neue, Helvetica, Arial, sans-serif" style="white-space: pre;">TEACHES</text>
    </g>
    <g class="relationship" transform="translate(312.2480358140125 -173.6237937348119) rotate(411.8332230314188)">
      <path class="b-outline" fill="#A5ABB6" stroke="none" d="M 25 0.5 L 34.745461186359336 0.5 L 34.745461186359336 -0.5 L 25 -0.5 Z M 94.84311743635934 0.5 L 104.58857862271867 0.5 L 104.58857862271867 3.5 L 111.58857862271867 0 L 104.58857862271867 -3.5 L 104.58857862271867 -0.5 L 94.84311743635934 -0.5 Z"/>
      <text text-anchor="middle" pointer-events="none" font-size="8px" fill="#000000" x="64.79428931135934" y="3" font-family="Helvetica Neue, Helvetica, Arial, sans-serif" style="white-space: pre;">BELONGS_TO</text>
    </g>
    <g class="relationship" transform="translate(-183.76497128272263 375.0536616778786) rotate(360.60954433238436)">
      <path class="b-outline" fill="#A5ABB6" stroke="none" d="M 40 0.5 L 74.34943756909703 0.5 L 74.34943756909703 -0.5 L 40 -0.5 Z M 174.59943756909703 0.5 L 208.94887513819407 0.5 L 208.94887513819407 3.5 L 215.94887513819407 0 L 208.94887513819407 -3.5 L 208.94887513819407 -0.5 L 174.59943756909703 -0.5 Z"/>
      <text text-anchor="middle" pointer-events="none" font-size="8px" fill="#000000" x="124.47443756909703" y="3" font-family="Helvetica Neue, Helvetica, Arial, sans-serif" style="white-space: pre;">ENROLLED_IN_COURSE</text>
    </g>
    <g class="relationship" transform="translate(-194.94433136788126 159.91490869611405) rotate(361.00342806665014)">
      <path class="b-outline" fill="#A5ABB6" stroke="none" d="M 40 0.5 L 80.35007478109387 0.5 L 80.35007478109387 -0.5 L 40 -0.5 Z M 180.60007478109387 0.5 L 220.95014956218773 0.5 L 220.95014956218773 3.5 L 227.95014956218773 0 L 220.95014956218773 -3.5 L 220.95014956218773 -0.5 L 180.60007478109387 -0.5 Z"/>
      <text text-anchor="middle" pointer-events="none" font-size="8px" fill="#000000" x="130.47507478109387" y="3" font-family="Helvetica Neue, Helvetica, Arial, sans-serif" style="white-space: pre;">ENROLLED_IN_COURSE</text>
    </g>
    <g class="relationship" transform="translate(-204.6368723758156 -76.05253234145104) rotate(360.9051315372358)">
      <path class="b-outline" fill="#A5ABB6" stroke="none" d="M 40 0.5 L 96.72638771423206 0.5 L 96.72638771423206 -0.5 L 40 -0.5 Z M 196.97638771423206 0.5 L 253.70277542846412 0.5 L 253.70277542846412 3.5 L 260.7027754284641 0 L 253.70277542846412 -3.5 L 253.70277542846412 -0.5 L 196.97638771423206 -0.5 Z"/>
      <text text-anchor="middle" pointer-events="none" font-size="8px" fill="#000000" x="146.85138771423206" y="3" font-family="Helvetica Neue, Helvetica, Arial, sans-serif" style="white-space: pre;">ENROLLED_IN_COURSE</text>
    </g>
    <g class="relationship" transform="translate(405.97743952016583 381.14972983322554) rotate(180.58027994376573)">
      <path class="b-outline" fill="#A5ABB6" stroke="none" d="M 25 0.5 L 151.68987396385754 0.5 L 151.68987396385754 -0.5 L 25 -0.5 Z M 190.13518646385754 0.5 L 316.8250604277151 0.5 L 316.8250604277151 3.5 L 323.8250604277151 0 L 316.8250604277151 -3.5 L 316.8250604277151 -0.5 L 190.13518646385754 -0.5 Z"/>
      <text text-anchor="middle" pointer-events="none" font-size="8px" fill="#000000" x="170.91253021385754" y="3" transform="rotate(180 170.91253021385754 0)" font-family="Helvetica Neue, Helvetica, Arial, sans-serif" style="white-space: pre;">OFFERS</text>
    </g>
  </g>
  <g class="layer nodes">
    <g class="node" aria-label="graph-node0" transform="translate(396.6533046463395,-66.23575714079828)">
      <circle class="b-outline" cx="0" cy="0" r="25" fill="#8DCC93" stroke="#5db665" stroke-width="2px"/>
      <text class="caption" text-anchor="middle" pointer-events="none" x="0" y="5" font-size="10px" fill="#2A2C34" font-family="Helvetica Neue, Helvetica, Arial, sans-serif" style="white-space: pre;"> Mathem…</text>
    </g>
    <g class="node" aria-label="graph-node1" transform="translate(394.23795704859094,162.93167606199512)">
      <circle class="b-outline" cx="0" cy="0" r="25" fill="#8DCC93" stroke="#5db665" stroke-width="2px"/>
      <text class="caption" text-anchor="middle" pointer-events="none" x="0" y="0" font-size="10px" fill="#2A2C34" font-family="Helvetica Neue, Helvetica, Arial, sans-serif" style="white-space: pre;"> Physics</text>
      <text class="caption" text-anchor="middle" pointer-events="none" x="0" y="10" font-size="10px" fill="#2A2C34" font-family="Helvetica Neue, Helvetica, Arial, sans-serif" style="white-space: pre;"> Depar…</text>
    </g>
    <g class="node" aria-label="graph-node2" transform="translate(57.17026882409729,377.61696131508)">
      <circle class="b-outline" cx="0" cy="0" r="25" fill="#F16667" stroke="#eb2728" stroke-width="2px"/>
      <text class="caption" text-anchor="middle" pointer-events="none" x="0" y="5" font-size="10px" fill="#FFFFFF" font-family="Helvetica Neue, Helvetica, Arial, sans-serif" style="white-space: pre;"> Introduct…</text>
    </g>
    <g class="node" aria-label="graph-node3" transform="translate(57.96702807917154,164.34462947476317)">
      <circle class="b-outline" cx="0" cy="0" r="25" fill="#F16667" stroke="#eb2728" stroke-width="2px"/>
      <text class="caption" text-anchor="middle" pointer-events="none" x="0" y="0" font-size="10px" fill="#FFFFFF" font-family="Helvetica Neue, Helvetica, Arial, sans-serif" style="white-space: pre;"> Data</text>
      <text class="caption" text-anchor="middle" pointer-events="none" x="0" y="10" font-size="10px" fill="#FFFFFF" font-family="Helvetica Neue, Helvetica, Arial, sans-serif" style="white-space: pre;"> Struct…</text>
    </g>
    <g class="node" aria-label="graph-node4" transform="translate(81.03025354295275,-71.53932319075352)">
      <circle class="b-outline" cx="0" cy="0" r="25" fill="#F16667" stroke="#eb2728" stroke-width="2px"/>
      <text class="caption" text-anchor="middle" pointer-events="none" x="0" y="5" font-size="10px" fill="#FFFFFF" font-family="Helvetica Neue, Helvetica, Arial, sans-serif" style="white-space: pre;"> Algorith…</text>
    </g>
    <g class="node" aria-label="graph-node5" transform="translate(-425.01284315552857,372.27147985774013)">
      <circle class="b-outline" cx="0" cy="0" r="25" fill="#F79767" stroke="#f36924" stroke-width="2px"/>
      <text class="caption" text-anchor="middle" pointer-events="none" x="0" y="5" font-size="10px" fill="#FFFFFF" font-family="Helvetica Neue, Helvetica, Arial, sans-serif" style="white-space: pre;"> Alice</text>
    </g>
    <g class="node" aria-label="graph-node20" transform="translate(-426.78503116447416,159.95659701599573)">
      <circle class="b-outline" cx="0" cy="0" r="25" fill="#F79767" stroke="#f36924" stroke-width="2px"/>
      <text class="caption" text-anchor="middle" pointer-events="none" x="0" y="5" font-size="10px" fill="#FFFFFF" font-family="Helvetica Neue, Helvetica, Arial, sans-serif" style="white-space: pre;"> Bob</text>
    </g>
    <g class="node" aria-label="graph-node21" transform="translate(-430.59453051111416,-78.51099421076472)">
      <circle class="b-outline" cx="0" cy="0" r="25" fill="#F79767" stroke="#f36924" stroke-width="2px"/>
      <text class="caption" text-anchor="middle" pointer-events="none" x="0" y="5" font-size="10px" fill="#FFFFFF" font-family="Helvetica Neue, Helvetica, Arial, sans-serif" style="white-space: pre;"> Charlie</text>
    </g>
    <g class="node" aria-label="graph-node22" transform="translate(217.93474848761707,282.6828713633961)">
      <circle class="b-outline" cx="0" cy="0" r="25" fill="#57C7E3" stroke="#23b3d7" stroke-width="2px"/>
      <text class="caption" text-anchor="middle" pointer-events="none" x="0" y="5" font-size="10px" fill="#2A2C34" font-family="Helvetica Neue, Helvetica, Arial, sans-serif" style="white-space: pre;"> Dr. Smith</text>
    </g>
    <g class="node" aria-label="graph-node23" transform="translate(159.57537032058625,35.82607168287589)">
      <circle class="b-outline" cx="0" cy="0" r="25" fill="#57C7E3" stroke="#23b3d7" stroke-width="2px"/>
      <text class="caption" text-anchor="middle" pointer-events="none" x="0" y="5" font-size="10px" fill="#2A2C34" font-family="Helvetica Neue, Helvetica, Arial, sans-serif" style="white-space: pre;"> Dr. Miller</text>
    </g>
    <g class="node" aria-label="graph-node24" transform="translate(312.2480358140125,-173.6237937348119)">
      <circle class="b-outline" cx="0" cy="0" r="25" fill="#57C7E3" stroke="#23b3d7" stroke-width="2px"/>
      <text class="caption" text-anchor="middle" pointer-events="none" x="0" y="5" font-size="10px" fill="#2A2C34" font-family="Helvetica Neue, Helvetica, Arial, sans-serif" style="white-space: pre;"> Dr. Brown</text>
    </g>
    <g class="node" aria-label="graph-node25" transform="translate(-183.76497128272263,375.0536616778786)">
      <circle class="b-outline" cx="0" cy="0" r="40" fill="#D9C8AE" stroke="#c0a378" stroke-width="2px"/>
      <text class="caption" text-anchor="middle" pointer-events="none" x="0" y="5" font-size="10px" fill="#2A2C34" font-family="Helvetica Neue, Helvetica, Arial, sans-serif" style="white-space: pre;"> Enrollment</text>
    </g>
    <g class="node" aria-label="graph-node26" transform="translate(-194.94433136788126,159.91490869611405)">
      <circle class="b-outline" cx="0" cy="0" r="40" fill="#D9C8AE" stroke="#c0a378" stroke-width="2px"/>
      <text class="caption" text-anchor="middle" pointer-events="none" x="0" y="5" font-size="10px" fill="#2A2C34" font-family="Helvetica Neue, Helvetica, Arial, sans-serif" style="white-space: pre;"> Enrollment</text>
    </g>
    <g class="node" aria-label="graph-node27" transform="translate(-204.6368723758156,-76.05253234145104)">
      <circle class="b-outline" cx="0" cy="0" r="40" fill="#D9C8AE" stroke="#c0a378" stroke-width="2px"/>
      <text class="caption" text-anchor="middle" pointer-events="none" x="0" y="5" font-size="10px" fill="#2A2C34" font-family="Helvetica Neue, Helvetica, Arial, sans-serif" style="white-space: pre;"> Enrollment</text>
    </g>
    <g class="node" aria-label="graph-node36" transform="translate(-637.5814636678605,371.4956127809707)">
      <circle class="b-outline" cx="0" cy="0" r="25" fill="#ECB5C9" stroke="#da7298" stroke-width="2px"/>
      <text class="caption" text-anchor="middle" pointer-events="none" x="0" y="0" font-size="10px" fill="#2A2C34" font-family="Helvetica Neue, Helvetica, Arial, sans-serif" style="white-space: pre;"> Computer</text>
      <text class="caption" text-anchor="middle" pointer-events="none" x="0" y="10" font-size="10px" fill="#2A2C34" font-family="Helvetica Neue, Helvetica, Arial, sans-serif" style="white-space: pre;"> Science</text>
    </g>
    <g class="node" aria-label="graph-node37" transform="translate(-640.0183235262132,164.1735109389088)">
      <circle class="b-outline" cx="0" cy="0" r="25" fill="#ECB5C9" stroke="#da7298" stroke-width="2px"/>
      <text class="caption" text-anchor="middle" pointer-events="none" x="0" y="0" font-size="10px" fill="#2A2C34" font-family="Helvetica Neue, Helvetica, Arial, sans-serif" style="white-space: pre;"> Data</text>
      <text class="caption" text-anchor="middle" pointer-events="none" x="0" y="10" font-size="10px" fill="#2A2C34" font-family="Helvetica Neue, Helvetica, Arial, sans-serif" style="white-space: pre;"> Science</text>
    </g>
    <g class="node" aria-label="graph-node38" transform="translate(-636.4837088446086,-78.92299405016834)">
      <circle class="b-outline" cx="0" cy="0" r="25" fill="#ECB5C9" stroke="#da7298" stroke-width="2px"/>
      <text class="caption" text-anchor="middle" pointer-events="none" x="0" y="5" font-size="10px" fill="#2A2C34" font-family="Helvetica Neue, Helvetica, Arial, sans-serif" style="white-space: pre;"> Mathem…</text>
    </g>
    <g class="node" aria-label="graph-node39" transform="translate(405.97743952016583,381.14972983322554)">
      <circle class="b-outline" cx="0" cy="0" r="25" fill="#8DCC93" stroke="#5db665" stroke-width="2px"/>
      <text class="caption" text-anchor="middle" pointer-events="none" x="0" y="0" font-size="10px" fill="#2A2C34" font-family="Helvetica Neue, Helvetica, Arial, sans-serif" style="white-space: pre;"> Computer</text>
      <text class="caption" text-anchor="middle" pointer-events="none" x="0" y="10" font-size="10px" fill="#2A2C34" font-family="Helvetica Neue, Helvetica, Arial, sans-serif" style="white-space: pre;">De…</text>
    </g>
  </g>
  <text style="white-space: pre; fill: rgb(51, 51, 51); font-family: Arial, sans-serif; font-size: 28px;" x="-445.28" y="-142.61" transform="matrix(0.325139, 0, 0, 0.325139, -99.7407, -103.647636)">:Enrollment<tspan x="-445.2799987792969" dy="1em">​</tspan>completedOn: 2021-01-01<tspan x="-445.2799987792969" dy="1em">​</tspan>enrolledOn: 2020-09-01<tspan x="-445.2799987792969" dy="1em">​</tspan>grade: 3</text>
  <text style="white-space: pre; fill: rgb(51, 51, 51); font-family: Arial, sans-serif; font-size: 28px;" x="-445.28" y="-142.61" transform="matrix(0.325139, 0, 0, 0.325139, -96.197098, 129.963852)">:Enrollment<tspan x="-445.2799987792969" dy="1em">​</tspan>completedOn: 2021-01-01<tspan x="-445.2799987792969" dy="1em">​</tspan>enrolledOn: 2020-09-01<tspan x="-445.2799987792969" dy="1em">​</tspan>grade: 1</text>
  <text style="white-space: pre; fill: rgb(51, 51, 51); font-family: Arial, sans-serif; font-size: 28px;" x="-445.28" y="-142.61" transform="matrix(0.325139, 0, 0, 0.325139, -87.983276, 343.497467)">:Enrollment<tspan x="-445.2799987792969" dy="1em">​</tspan>completedOn: 2021-01-01<tspan x="-445.2799987792969" dy="1em">​</tspan>enrolledOn: 2020-09-01<tspan x="-445.2799987792969" dy="1em">​</tspan>grade: 2</text>
  <text style="white-space: pre; fill: rgb(51, 51, 51); font-family: Arial, sans-serif; font-size: 28px;" x="-445.28" y="-142.61" transform="matrix(0.325139, 0, 0, 0.325139, -209.167801, -9.293256)">year: 2021<tspan x="-445.2799987792969" dy="1em">​</tspan>semestr Fall</text>
  <text style="white-space: pre; fill: rgb(51, 51, 51); font-family: Arial, sans-serif; font-size: 28px;" x="-445.28" y="-142.61" transform="matrix(0.325139, 0, 0, 0.325139, -206.887085, 224.803864)">year: 2021<tspan x="-445.2799987792969" dy="1em">​</tspan>semestr Spring</text>
  <text style="white-space: pre; fill: rgb(51, 51, 51); font-family: Arial, sans-serif; font-size: 28px;" x="-445.28" y="-142.61" transform="matrix(0.325139, 0, 0, 0.325139, -202.042267, 441.79364)">year: 2020<tspan x="-445.2799987792969" dy="1em">​</tspan>semestr Fall</text>
  <text style="white-space: pre; fill: rgb(51, 51, 51); font-family: Arial, sans-serif; font-size: 28px;" x="-445.28" y="-142.61" transform="matrix(0.325139, 0, 0, 0.325139, -310.474884, 346.190796)">:Student<tspan x="-445.2799987792969" dy="1em">​</tspan>name: Alice<tspan x="-445.2799987792969" dy="1em">​</tspan>email: student1@b.cz<tspan x="-445.2799987792969" dy="1em">​</tspan>phone: +1234567</text>
  <text style="white-space: pre; fill: rgb(51, 51, 51); font-family: Arial, sans-serif; font-size: 28px;" x="-445.28" y="-142.61" transform="matrix(0.325139, 0, 0, 0.325139, -317.633148, 145.158829)">:Student<tspan x="-445.2799987792969" dy="1em">​</tspan>name: Bob<tspan x="-445.2799987792969" dy="1em">​</tspan>email: Bob@b.cz<tspan x="-445.2799987792969" dy="1em">​</tspan>phone: 987654321</text>
  <text style="white-space: pre; fill: rgb(51, 51, 51); font-family: Arial, sans-serif; font-size: 28px;" x="-445.28" y="-142.61" transform="matrix(0.325139, 0, 0, 0.325139, -332.304626, -104.16613)">:Student<tspan x="-445.2799987792969" dy="1em">​</tspan>name: Charlie<tspan x="-445.2799987792969" dy="1em">​</tspan>email: Charlie@b.cz<tspan x="-445.2799987792969" dy="1em">​</tspan>phone: +123456789</text>
  <text style="white-space: pre; fill: rgb(51, 51, 51); font-family: Arial, sans-serif; font-size: 28px;" x="-445.28" y="-142.61" transform="matrix(0.325139, 0, 0, 0.325139, 169.626068, -93.511177)">:Cource<tspan x="-445.2799987792969" dy="1em">​</tspan>code: CS103<tspan x="-445.2799987792969" dy="1em">​</tspan>credits: 4<tspan x="-445.2799987792969" dy="1em">​</tspan>title: Algorithms</text>
  <text style="white-space: pre; fill: rgb(51, 51, 51); font-family: Arial, sans-serif; font-size: 28px;" x="-445.28" y="-142.61" transform="matrix(0.325139, 0, 0, 0.325139, 152.973434, 140.808899)">:Cource<tspan x="-445.2799987792969" dy="1em">​</tspan>code: CS102<tspan x="-445.2799987792969" dy="1em">​</tspan>credits: 3<tspan x="-445.2799987792969" dy="1em">​</tspan>title: Data Structures</text>
  <text style="white-space: pre; fill: rgb(51, 51, 51); font-family: Arial, sans-serif; font-size: 28px;" x="-445.28" y="-142.61" transform="matrix(0.325139, 0, 0, 0.325139, 139.287445, 359.544434)">:Cource<tspan x="-445.2799987792969" dy="1em">​</tspan>code: CS101<tspan x="-445.2799987792969" dy="1em">​</tspan>credits: 4<tspan x="-445.2799987792969" dy="1em">​</tspan>title: Introduction to<tspan x="-445.2799987792969" dy="1em">​</tspan>Computer Science</text>
  <text style="white-space: pre; fill: rgb(51, 51, 51); font-family: Arial, sans-serif; font-size: 9.9px;" x="163.206" y="-140.29">rating: 4.0</text>
  <text style="white-space: pre; fill: rgb(51, 51, 51); font-family: Arial, sans-serif; font-size: 9.9px;" x="61.544" y="-1.214">rating: 4.2</text>
  <text style="white-space: pre; fill: rgb(51, 51, 51); font-family: Arial, sans-serif; font-size: 9.9px;" x="143.081" y="210.462">rating: 4.7</text>
  <text style="white-space: pre; fill: rgb(51, 51, 51); font-family: Arial, sans-serif; font-size: 9.9px;" x="113.544" y="309.404">rating: 4.5</text>
  <text style="white-space: pre; fill: rgb(51, 51, 51); font-family: Arial, sans-serif; font-size: 9.9px;" x="223.579" y="-24.95">since: 2019</text>
  <text style="white-space: pre; fill: rgb(51, 51, 51); font-family: Arial, sans-serif; font-size: 9.9px;" x="288.237" y="-109.33">since: 2020</text>
  <text style="white-space: pre; fill: rgb(51, 51, 51); font-family: Arial, sans-serif; font-size: 9.9px;" x="299.012" y="310.445" transform="matrix(1, 0, 0, 1, 21.584297, 16.348566)">since: 2018<tspan x="299.0119934082031" dy="1em">​</tspan></text>
  <text style="white-space: pre; fill: rgb(51, 51, 51); font-family: Arial, sans-serif; font-size: 28px; transform-box: fill-box; transform-origin: 49.3601% 32.2293%;" x="234.392" y="238.86" transform="matrix(0.28967, -0.005331, 0.005331, 0.28967, 121.22242, 166.366562)">:Teacher<tspan x="234.39199829101562" dy="1em">​</tspan>name: Dr. Smith<tspan x="234.39199829101562" dy="1em">​</tspan>email: Smith@b.cz<tspan x="234.39199829101562" dy="1em">​</tspan>phone: +7777777</text>
  <text style="white-space: pre; fill: rgb(51, 51, 51); font-family: Arial, sans-serif; font-size: 28px; transform-origin: 349.763px 250.086px;" x="234.392" y="238.86" transform="matrix(0.376927, -0.006937, 0.006937, 0.376927, -114.472275, -192.703568)">:Teacher<tspan x="234.39199829101562" dy="1em">​</tspan>name: Dr. Miller<tspan x="234.39199829101562" dy="1em">​</tspan>email: Miller@b.cz<tspan x="234.39199829101562" dy="1em">​</tspan>phone: +777888777</text>
  <text style="white-space: pre; fill: rgb(51, 51, 51); font-family: Arial, sans-serif; font-size: 28px; transform-origin: 349.763px 250.086px;" x="234.392" y="238.86" transform="matrix(0.305766, -0.005627, 0.005627, 0.305766, 30.205114, -424.001862)">:Teacher<tspan x="234.39199829101562" dy="1em">​</tspan>name: Dr. Brown<tspan x="234.39199829101562" dy="1em">​</tspan>email: Brown@b.cz<tspan x="234.39199829101562" dy="1em">​</tspan>phone: +123456879</text>
  <text style="white-space: pre; fill: rgb(51, 51, 51); font-family: Arial, sans-serif; font-size: 28px; transform-origin: 349.763px 250.086px;" x="234.392" y="238.86" transform="matrix(0.305766, -0.005627, 0.005627, 0.305766, 28.077761, -266.189209)">:Department<tspan x="234.39199829101562" dy="1em">​</tspan>location: Building B<tspan x="234.39199829101562" dy="1em">​</tspan>name: Mathematics</text>
  <text style="white-space: pre; fill: rgb(51, 51, 51); font-family: Arial, sans-serif; font-size: 28px; transform-origin: 349.763px 250.086px;" x="234.392" y="238.86" transform="matrix(0.305766, -0.005627, 0.005627, 0.305766, 14.994237, -133.795746)">:Department<tspan x="234.39199829101562" dy="1em">​</tspan>location: Building A<tspan x="234.39199829101562" dy="1em">​</tspan>name: Physics</text>
  <text style="white-space: pre; fill: rgb(51, 51, 51); font-family: Arial, sans-serif; font-size: 28px; transform-origin: 349.763px 250.086px;" x="234.392" y="238.86" transform="matrix(0.305766, -0.005627, 0.005627, 0.305766, -22.565556, 148.386932)">:Department<tspan x="234.39199829101562" dy="1em">​</tspan>location: Building A<tspan x="234.39199829101562" dy="1em">​</tspan>name: Computer Science</text>
  <text style="white-space: pre; fill: rgb(51, 51, 51); font-family: Arial, sans-serif; font-size: 28px;" x="-445.28" y="-142.61" transform="matrix(0.325139, 0, 0, 0.325139, -417.905334, -14.033672)">year: 2021<tspan x="-445.2799987792969" dy="1em">​</tspan></text>
  <text style="white-space: pre; fill: rgb(51, 51, 51); font-family: Arial, sans-serif; font-size: 28px;" x="-445.28" y="-142.61" transform="matrix(0.325139, 0, 0, 0.325139, -418.411255, 228.888443)">year: 2020<tspan x="-445.2799987792969" dy="1em">​</tspan></text>
  <text style="white-space: pre; fill: rgb(51, 51, 51); font-family: Arial, sans-serif; font-size: 28px;" x="-445.28" y="-142.61" transform="matrix(0.325139, 0, 0, 0.325139, -419.466583, 437.816895)">year: 2019<tspan x="-445.2799987792969" dy="1em">​</tspan></text>
  <text style="white-space: pre; fill: rgb(51, 51, 51); font-family: Arial, sans-serif; font-size: 28px;" x="-445.28" y="-142.61" transform="matrix(0.325139, 0, 0, 0.325139, -511.905762, -88.411217)">:Program<tspan x="-445.2799987792969" dy="1em">​</tspan>name: Mathematics<tspan x="-445.2799987792969" dy="1em">​</tspan>duration: 3</text>
  <text style="white-space: pre; fill: rgb(51, 51, 51); font-family: Arial, sans-serif; font-size: 28px;" x="-445.28" y="-142.61" transform="matrix(0.325139, 0, 0, 0.325139, -512.442322, 152.872467)">:Program<tspan x="-445.2799987792969" dy="1em">​</tspan>name: Data Science<tspan x="-445.2799987792969" dy="1em">​</tspan>duration: 2</text>
  <text style="white-space: pre; fill: rgb(51, 51, 51); font-family: Arial, sans-serif; font-size: 28px;" x="-445.28" y="-142.61" transform="matrix(0.325139, 0, 0, 0.325139, -509.008057, 356.577942)">:Program<tspan x="-445.2799987792969" dy="1em">​</tspan>name: Computer Science<tspan x="-445.2799987792969" dy="1em">​</tspan>duration: 4</text>
</svg>