<svg xmlns="http://www.w3.org/2000/svg" width="1023.5889282226562" height="660.8006591796875" viewBox="-867.12548828125 -345.0260314941406 1023.5889282226562 660.8006591796875"><title>Neo4j Graph Visualization</title><desc>Created using Neo4j (http://www.neo4j.com/)</desc><g class="layer relationships"><g class="relationship" transform="translate(-838.1255184044803 64.94081680355174) rotate(271.6645080142225)"><path class="b-outline" fill="#A5ABB6" stroke="none" d="M 25 0.5 L 42.81229311818005 0.5 L 42.81229311818005 -0.5 L 25 -0.5 Z M 109.28104311818005 0.5 L 127.0933362363601 0.5 L 127.0933362363601 3.5 L 134.0933362363601 0 L 127.0933362363601 -3.5 L 127.0933362363601 -0.5 L 109.28104311818005 -0.5 Z"/><text text-anchor="middle" pointer-events="none" font-size="8px" fill="#000000" x="76.04666811818005" y="3" font-family="Helvetica Neue, Helvetica, Arial, sans-serif">PUBLISHED_BY</text></g><g class="relationship" transform="translate(-683.7688631330702 128.37385751847202) rotate(403.758544908438)"><path class="b-outline" fill="#A5ABB6" stroke="none" d="M 25 0.5 L 91.79153113905625 0.5 L 91.79153113905625 -0.5 L 25 -0.5 Z M 130.23684363905625 0.5 L 197.0283747781125 0.5 L 197.0283747781125 3.5 L 204.0283747781125 0 L 197.0283747781125 -3.5 L 197.0283747781125 -0.5 L 130.23684363905625 -0.5 Z"/><text text-anchor="middle" pointer-events="none" font-size="8px" fill="#000000" x="111.01418738905625" y="3" font-family="Helvetica Neue, Helvetica, Arial, sans-serif">OFFERS</text></g><g class="relationship" transform="translate(-677.1581480446398 -161.52162712486725) rotate(338.608334219025)"><path class="b-outline" fill="#A5ABB6" stroke="none" d="M 25 0.5 L 72.27229229637658 0.5 L 72.27229229637658 -0.5 L 25 -0.5 Z M 110.71760479637658 0.5 L 157.98989709275315 0.5 L 157.98989709275315 3.5 L 164.98989709275315 0 L 157.98989709275315 -3.5 L 157.98989709275315 -0.5 L 110.71760479637658 -0.5 Z"/><text text-anchor="middle" pointer-events="none" font-size="8px" fill="#000000" x="91.49494854637658" y="3" font-family="Helvetica Neue, Helvetica, Arial, sans-serif">OFFERS</text></g><g class="relationship" transform="translate(-677.0033648125323 -16.58748617986307) rotate(361.3482473761537)"><path class="b-outline" fill="#A5ABB6" stroke="none" d="M 25 0.5 L 55.07075942660069 0.5 L 55.07075942660069 -0.5 L 25 -0.5 Z M 93.51607192660069 0.5 L 123.58683135320138 0.5 L 123.58683135320138 3.5 L 130.58683135320138 0 L 123.58683135320138 -3.5 L 123.58683135320138 -0.5 L 93.51607192660069 -0.5 Z"/><text text-anchor="middle" pointer-events="none" font-size="8px" fill="#000000" x="74.29341567660069" y="3" font-family="Helvetica Neue, Helvetica, Arial, sans-serif">OFFERS</text></g><g class="relationship" transform="translate(-154.34181013020975 275.2400828984624) rotate(359.42136639060925)"><path class="b-outline" fill="#A5ABB6" stroke="none" d="M 25 0.5 L 36.69832297014254 0.5 L 36.69832297014254 -0.5 L 25 -0.5 Z M 144.05769797014256 0.5 L 155.75602094028508 0.5 L 155.75602094028508 3.5 L 162.75602094028508 0 L 155.75602094028508 -3.5 L 155.75602094028508 -0.5 L 144.05769797014256 -0.5 Z"/><text text-anchor="middle" pointer-events="none" font-size="8px" fill="#000000" x="90.37801047014254" y="3" font-family="Helvetica Neue, Helvetica, Arial, sans-serif">ENROLLED_IN_PROGRAM</text></g><g class="relationship" transform="translate(-154.34181013020975 275.2400828984624) rotate(538.5507092347043)"><path class="b-outline" fill="#A5ABB6" stroke="none" d="M 25 0.5 L 48.3297953522883 0.5 L 48.3297953522883 -0.5 L 25 -0.5 Z M 118.3532328522883 0.5 L 141.6830282045766 0.5 L 141.6830282045766 3.5 L 148.6830282045766 0 L 141.6830282045766 -3.5 L 141.6830282045766 -0.5 L 118.3532328522883 -0.5 Z"/><text text-anchor="middle" pointer-events="none" font-size="8px" fill="#000000" x="83.3415141022883" y="3" transform="rotate(180 83.3415141022883 0)" font-family="Helvetica Neue, Helvetica, Arial, sans-serif">HAS_ENROLLED</text></g><g class="relationship" transform="translate(-98.85377921599239 -5.454346850255327) rotate(359.7474909862974)"><path class="b-outline" fill="#A5ABB6" stroke="none" d="M 25 0.5 L 50.397727431357936 0.5 L 50.397727431357936 -0.5 L 25 -0.5 Z M 157.75710243135794 0.5 L 183.15482986271587 0.5 L 183.15482986271587 3.5 L 190.15482986271587 0 L 183.15482986271587 -3.5 L 183.15482986271587 -0.5 L 157.75710243135794 -0.5 Z"/><text text-anchor="middle" pointer-events="none" font-size="8px" fill="#000000" x="104.07741493135794" y="3" font-family="Helvetica Neue, Helvetica, Arial, sans-serif">ENROLLED_IN_PROGRAM</text></g><g class="relationship" transform="translate(-98.85377921599239 -5.454346850255327) rotate(180.5861998737961)"><path class="b-outline" fill="#A5ABB6" stroke="none" d="M 25 0.5 L 58.7061810091741 0.5 L 58.7061810091741 -0.5 L 25 -0.5 Z M 128.7296185091741 0.5 L 162.4357995183482 0.5 L 162.4357995183482 3.5 L 169.4357995183482 0 L 162.4357995183482 -3.5 L 162.4357995183482 -0.5 L 128.7296185091741 -0.5 Z"/><text text-anchor="middle" pointer-events="none" font-size="8px" fill="#000000" x="93.7178997591741" y="3" transform="rotate(180 93.7178997591741 0)" font-family="Helvetica Neue, Helvetica, Arial, sans-serif">HAS_ENROLLED</text></g><g class="relationship" transform="translate(-91.91883779517522 -223.6833278624455) rotate(361.2090449395245)"><path class="b-outline" fill="#A5ABB6" stroke="none" d="M 25 0.5 L 52.53587105511279 0.5 L 52.53587105511279 -0.5 L 25 -0.5 Z M 159.8952460551128 0.5 L 187.43111711022559 0.5 L 187.43111711022559 3.5 L 194.43111711022559 0 L 187.43111711022559 -3.5 L 187.43111711022559 -0.5 L 159.8952460551128 -0.5 Z"/><text text-anchor="middle" pointer-events="none" font-size="8px" fill="#000000" x="106.21555855511279" y="3" font-family="Helvetica Neue, Helvetica, Arial, sans-serif">ENROLLED_IN_PROGRAM</text></g><g class="relationship" transform="translate(-91.91883779517522 -223.6833278624455) rotate(182.18476527587364)"><path class="b-outline" fill="#A5ABB6" stroke="none" d="M 25 0.5 L 58.91530002838047 0.5 L 58.91530002838047 -0.5 L 25 -0.5 Z M 128.93873752838047 0.5 L 162.85403755676094 0.5 L 162.85403755676094 3.5 L 169.85403755676094 0 L 162.85403755676094 -3.5 L 162.85403755676094 -0.5 L 128.93873752838047 -0.5 Z"/><text text-anchor="middle" pointer-events="none" font-size="8px" fill="#000000" x="93.92701877838047" y="3" transform="rotate(180 93.92701877838047 0)" font-family="Helvetica Neue, Helvetica, Arial, sans-serif">HAS_ENROLLED</text></g><g class="relationship" transform="translate(-517.7370225936769 125.10364519378771) rotate(450.21746352468153)"><path class="b-outline" fill="#A5ABB6" stroke="none" d="M 25 0.5 L 55.44350178134911 0.5 L 55.44350178134911 -0.5 L 25 -0.5 Z M 99.22865803134911 0.5 L 129.67215981269823 0.5 L 129.67215981269823 3.5 L 136.67215981269823 0 L 129.67215981269823 -3.5 L 129.67215981269823 -0.5 L 99.22865803134911 -0.5 Z"/><text text-anchor="middle" pointer-events="none" font-size="8px" fill="#000000" x="77.33607990634911" y="3" transform="rotate(180 77.33607990634911 0)" font-family="Helvetica Neue, Helvetica, Arial, sans-serif">TEACHES</text></g><g class="relationship" transform="translate(-517.7370225936769 125.10364519378771) rotate(268.45514556504145)"><path class="b-outline" fill="#A5ABB6" stroke="none" d="M 25 0.5 L 43.64766629614118 0.5 L 43.64766629614118 -0.5 L 25 -0.5 Z M 87.43282254614118 0.5 L 106.08048884228236 0.5 L 106.08048884228236 3.5 L 113.08048884228236 0 L 106.08048884228236 -3.5 L 106.08048884228236 -0.5 L 87.43282254614118 -0.5 Z"/><text text-anchor="middle" pointer-events="none" font-size="8px" fill="#000000" x="65.54024442114118" y="3" transform="rotate(180 65.54024442114118 0)" font-family="Helvetica Neue, Helvetica, Arial, sans-serif">TEACHES</text></g><g class="relationship" transform="translate(-517.7370225936769 125.10364519378771) rotate(538.8716312501665)"><path class="b-outline" fill="#A5ABB6" stroke="none" d="M 25 0.5 L 49.48319335097493 0.5 L 49.48319335097493 -0.5 L 25 -0.5 Z M 109.58084960097493 0.5 L 134.06404295194986 0.5 L 134.06404295194986 3.5 L 141.06404295194986 0 L 134.06404295194986 -3.5 L 134.06404295194986 -0.5 L 109.58084960097493 -0.5 Z"/><text text-anchor="middle" pointer-events="none" font-size="8px" fill="#000000" x="79.53202147597493" y="3" transform="rotate(180 79.53202147597493 0)" font-family="Helvetica Neue, Helvetica, Arial, sans-serif">BELONGS_TO</text></g><g class="relationship" transform="translate(-634.1439736667589 -316.02603823966376) rotate(392.47312762698346)"><path class="b-outline" fill="#A5ABB6" stroke="none" d="M 25 0.5 L 53.95795883371119 0.5 L 53.95795883371119 -0.5 L 25 -0.5 Z M 97.74311508371119 0.5 L 126.70107391742238 0.5 L 126.70107391742238 3.5 L 133.70107391742238 0 L 126.70107391742238 -3.5 L 126.70107391742238 -0.5 L 97.74311508371119 -0.5 Z"/><text text-anchor="middle" pointer-events="none" font-size="8px" fill="#000000" x="75.85053695871119" y="3" font-family="Helvetica Neue, Helvetica, Arial, sans-serif">TEACHES</text></g><g class="relationship" transform="translate(-634.1439736667589 -316.02603823966376) rotate(465.55725297376284)"><path class="b-outline" fill="#A5ABB6" stroke="none" d="M 25 0.5 L 46.641308817364674 0.5 L 46.641308817364674 -0.5 L 25 -0.5 Z M 106.73896506736467 0.5 L 128.38027388472935 0.5 L 128.38027388472935 3.5 L 135.38027388472935 0 L 128.38027388472935 -3.5 L 128.38027388472935 -0.5 L 106.73896506736467 -0.5 Z"/><text text-anchor="middle" pointer-events="none" font-size="8px" fill="#000000" x="76.69013694236467" y="3" transform="rotate(180 76.69013694236467 0)" font-family="Helvetica Neue, Helvetica, Arial, sans-serif">BELONGS_TO</text></g><g class="relationship" transform="translate(-516.2152219099986 -73.42735108457072) rotate(275.789591751735)"><path class="b-outline" fill="#A5ABB6" stroke="none" d="M 25 0.5 L 53.70662670372995 0.5 L 53.70662670372995 -0.5 L 25 -0.5 Z M 97.49178295372995 0.5 L 126.1984096574599 0.5 L 126.1984096574599 3.5 L 133.1984096574599 0 L 126.1984096574599 -3.5 L 126.1984096574599 -0.5 L 97.49178295372995 -0.5 Z"/><text text-anchor="middle" pointer-events="none" font-size="8px" fill="#000000" x="75.59920482872995" y="3" font-family="Helvetica Neue, Helvetica, Arial, sans-serif">TEACHES</text></g><g class="relationship" transform="translate(-516.2152219099986 -73.42735108457072) rotate(208.6946854231398)"><path class="b-outline" fill="#A5ABB6" stroke="none" d="M 25 0.5 L 58.188878059322775 0.5 L 58.188878059322775 -0.5 L 25 -0.5 Z M 118.28653430932278 0.5 L 151.47541236864555 0.5 L 151.47541236864555 3.5 L 158.47541236864555 0 L 151.47541236864555 -3.5 L 151.47541236864555 -0.5 L 118.28653430932278 -0.5 Z"/><text text-anchor="middle" pointer-events="none" font-size="8px" fill="#000000" x="88.23770618432278" y="3" transform="rotate(180 88.23770618432278 0)" font-family="Helvetica Neue, Helvetica, Arial, sans-serif">BELONGS_TO</text></g><g class="relationship" transform="translate(-327.9692773396649 279.63290849724524) rotate(537.8516840099649)"><path class="b-outline" fill="#A5ABB6" stroke="none" d="M 25 0.5 L 41.632634543743066 0.5 L 41.632634543743066 -0.5 L 25 -0.5 Z M 141.88263454374305 0.5 L 158.51526908748613 0.5 L 158.51526908748613 3.5 L 165.51526908748613 0 L 158.51526908748613 -3.5 L 158.51526908748613 -0.5 L 141.88263454374305 -0.5 Z"/><text text-anchor="middle" pointer-events="none" font-size="8px" fill="#000000" x="91.75763454374307" y="3" transform="rotate(180 91.75763454374307 0)" font-family="Helvetica Neue, Helvetica, Arial, sans-serif">ENROLLED_IN_COURSE</text></g><g class="relationship" transform="translate(-293.2794024643094 -7.443607728770832) rotate(181.37652177046203)"><path class="b-outline" fill="#A5ABB6" stroke="none" d="M 25 0.5 L 60.498036485130925 0.5 L 60.498036485130925 -0.5 L 25 -0.5 Z M 160.7480364851309 0.5 L 196.24607297026185 0.5 L 196.24607297026185 3.5 L 203.24607297026185 0 L 196.24607297026185 -3.5 L 196.24607297026185 -0.5 L 160.7480364851309 -0.5 Z"/><text text-anchor="middle" pointer-events="none" font-size="8px" fill="#000000" x="110.62303648513092" y="3" transform="rotate(180 110.62303648513092 0)" font-family="Helvetica Neue, Helvetica, Arial, sans-serif">ENROLLED_IN_COURSE</text></g><g class="relationship" transform="translate(-286.6312336634336 -231.11157445327973) rotate(539.9214756633044)"><path class="b-outline" fill="#A5ABB6" stroke="none" d="M 25 0.5 L 53.1879172780406 0.5 L 53.1879172780406 -0.5 L 25 -0.5 Z M 153.4379172780406 0.5 L 181.6258345560812 0.5 L 181.6258345560812 3.5 L 188.6258345560812 0 L 181.6258345560812 -3.5 L 181.6258345560812 -0.5 L 153.4379172780406 -0.5 Z"/><text text-anchor="middle" pointer-events="none" font-size="8px" fill="#000000" x="103.3129172780406" y="3" transform="rotate(180 103.3129172780406 0)" font-family="Helvetica Neue, Helvetica, Arial, sans-serif">ENROLLED_IN_COURSE</text></g></g><g class="layer nodes"><g class="node" aria-label="graph-node14" transform="translate(-833.5043248694057,-94.08538922906075)"><circle class="b-outline" cx="0" cy="0" r="25" fill="#4C8EDA" stroke="#2870c2" stroke-width="2px"/><text class="caption" text-anchor="middle" pointer-events="none" x="0" y="5" font-size="10px" fill="#FFFFFF" font-family="Helvetica Neue, Helvetica, Arial, sans-serif"> </text></g><g class="node" aria-label="graph-node15" transform="translate(-838.1255184044803,64.94081680355174)"><circle class="b-outline" cx="0" cy="0" r="25" fill="#FFC454" stroke="#d7a013" stroke-width="2px"/><text class="caption" text-anchor="middle" pointer-events="none" x="0" y="0" font-size="10px" fill="#2A2C34" font-family="Helvetica Neue, Helvetica, Arial, sans-serif"> Student</text><text class="caption" text-anchor="middle" pointer-events="none" x="0" y="10" font-size="10px" fill="#2A2C34" font-family="Helvetica Neue, Helvetica, Arial, sans-serif"> Inform…</text></g><g class="node" aria-label="graph-node16" transform="translate(33.4046361749555,273.3439555001919)"><circle class="b-outline" cx="0" cy="0" r="25" fill="#ECB5C9" stroke="#da7298" stroke-width="2px"/><text class="caption" text-anchor="middle" pointer-events="none" x="0" y="0" font-size="10px" fill="#2A2C34" font-family="Helvetica Neue, Helvetica, Arial, sans-serif"> Computer</text><text class="caption" text-anchor="middle" pointer-events="none" x="0" y="10" font-size="10px" fill="#2A2C34" font-family="Helvetica Neue, Helvetica, Arial, sans-serif"> Science</text></g><g class="node" aria-label="graph-node17" transform="translate(116.2989612115208,-6.402555574815963)"><circle class="b-outline" cx="0" cy="0" r="25" fill="#ECB5C9" stroke="#da7298" stroke-width="2px"/><text class="caption" text-anchor="middle" pointer-events="none" x="0" y="0" font-size="10px" fill="#2A2C34" font-family="Helvetica Neue, Helvetica, Arial, sans-serif"> Data</text><text class="caption" text-anchor="middle" pointer-events="none" x="0" y="10" font-size="10px" fill="#2A2C34" font-family="Helvetica Neue, Helvetica, Arial, sans-serif"> Science</text></g><g class="node" aria-label="graph-node18" transform="translate(127.46342626026541,-219.05327665857567)"><circle class="b-outline" cx="0" cy="0" r="25" fill="#ECB5C9" stroke="#da7298" stroke-width="2px"/><text class="caption" text-anchor="middle" pointer-events="none" x="0" y="5" font-size="10px" fill="#2A2C34" font-family="Helvetica Neue, Helvetica, Arial, sans-serif"> Mathem…</text></g><g class="node" aria-label="graph-node19" transform="translate(-683.7688631330702,128.37385751847202)"><circle class="b-outline" cx="0" cy="0" r="25" fill="#8DCC93" stroke="#5db665" stroke-width="2px"/><text class="caption" text-anchor="middle" pointer-events="none" x="0" y="0" font-size="10px" fill="#2A2C34" font-family="Helvetica Neue, Helvetica, Arial, sans-serif"> Computer</text><text class="caption" text-anchor="middle" pointer-events="none" x="0" y="10" font-size="10px" fill="#2A2C34" font-family="Helvetica Neue, Helvetica, Arial, sans-serif">De…</text></g><g class="node" aria-label="graph-node20" transform="translate(-677.1581480446398,-161.52162712486725)"><circle class="b-outline" cx="0" cy="0" r="25" fill="#8DCC93" stroke="#5db665" stroke-width="2px"/><text class="caption" text-anchor="middle" pointer-events="none" x="0" y="5" font-size="10px" fill="#2A2C34" font-family="Helvetica Neue, Helvetica, Arial, sans-serif"> Mathem…</text></g><g class="node" aria-label="graph-node21" transform="translate(-677.0033648125323,-16.58748617986307)"><circle class="b-outline" cx="0" cy="0" r="25" fill="#8DCC93" stroke="#5db665" stroke-width="2px"/><text class="caption" text-anchor="middle" pointer-events="none" x="0" y="0" font-size="10px" fill="#2A2C34" font-family="Helvetica Neue, Helvetica, Arial, sans-serif"> Physics</text><text class="caption" text-anchor="middle" pointer-events="none" x="0" y="10" font-size="10px" fill="#2A2C34" font-family="Helvetica Neue, Helvetica, Arial, sans-serif"> Depar…</text></g><g class="node" aria-label="graph-node22" transform="translate(-518.3506404483214,286.7746405257615)"><circle class="b-outline" cx="0" cy="0" r="25" fill="#F16667" stroke="#eb2728" stroke-width="2px"/><text class="caption" text-anchor="middle" pointer-events="none" x="0" y="5" font-size="10px" fill="#FFFFFF" font-family="Helvetica Neue, Helvetica, Arial, sans-serif"> Introduct…</text></g><g class="node" aria-label="graph-node23" transform="translate(-521.4596076080475,-12.92665495706484)"><circle class="b-outline" cx="0" cy="0" r="25" fill="#F16667" stroke="#eb2728" stroke-width="2px"/><text class="caption" text-anchor="middle" pointer-events="none" x="0" y="0" font-size="10px" fill="#FFFFFF" font-family="Helvetica Neue, Helvetica, Arial, sans-serif"> Data</text><text class="caption" text-anchor="middle" pointer-events="none" x="0" y="10" font-size="10px" fill="#FFFFFF" font-family="Helvetica Neue, Helvetica, Arial, sans-serif"> Struct…</text></g><g class="node" aria-label="graph-node24" transform="translate(-500.25686759361525,-230.81879858303637)"><circle class="b-outline" cx="0" cy="0" r="25" fill="#F16667" stroke="#eb2728" stroke-width="2px"/><text class="caption" text-anchor="middle" pointer-events="none" x="0" y="5" font-size="10px" fill="#FFFFFF" font-family="Helvetica Neue, Helvetica, Arial, sans-serif"> Algorith…</text></g><g class="node" aria-label="graph-node25" transform="translate(-154.34181013020975,275.2400828984624)"><circle class="b-outline" cx="0" cy="0" r="25" fill="#F79767" stroke="#f36924" stroke-width="2px"/><text class="caption" text-anchor="middle" pointer-events="none" x="0" y="5" font-size="10px" fill="#FFFFFF" font-family="Helvetica Neue, Helvetica, Arial, sans-serif"> Alice</text></g><g class="node" aria-label="graph-node26" transform="translate(-98.85377921599239,-5.454346850255327)"><circle class="b-outline" cx="0" cy="0" r="25" fill="#F79767" stroke="#f36924" stroke-width="2px"/><text class="caption" text-anchor="middle" pointer-events="none" x="0" y="5" font-size="10px" fill="#FFFFFF" font-family="Helvetica Neue, Helvetica, Arial, sans-serif"> Bob</text></g><g class="node" aria-label="graph-node27" transform="translate(-91.91883779517522,-223.6833278624455)"><circle class="b-outline" cx="0" cy="0" r="25" fill="#F79767" stroke="#f36924" stroke-width="2px"/><text class="caption" text-anchor="middle" pointer-events="none" x="0" y="5" font-size="10px" fill="#FFFFFF" font-family="Helvetica Neue, Helvetica, Arial, sans-serif"> Charlie</text></g><g class="node" aria-label="graph-node28" transform="translate(-517.7370225936769,125.10364519378771)"><circle class="b-outline" cx="0" cy="0" r="25" fill="#57C7E3" stroke="#23b3d7" stroke-width="2px"/><text class="caption" text-anchor="middle" pointer-events="none" x="0" y="5" font-size="10px" fill="#2A2C34" font-family="Helvetica Neue, Helvetica, Arial, sans-serif"> Dr. Smith</text></g><g class="node" aria-label="graph-node29" transform="translate(-634.1439736667589,-316.02603823966376)"><circle class="b-outline" cx="0" cy="0" r="25" fill="#57C7E3" stroke="#23b3d7" stroke-width="2px"/><text class="caption" text-anchor="middle" pointer-events="none" x="0" y="5" font-size="10px" fill="#2A2C34" font-family="Helvetica Neue, Helvetica, Arial, sans-serif"> Dr. Miller</text></g><g class="node" aria-label="graph-node30" transform="translate(-516.2152219099986,-73.42735108457072)"><circle class="b-outline" cx="0" cy="0" r="25" fill="#57C7E3" stroke="#23b3d7" stroke-width="2px"/><text class="caption" text-anchor="middle" pointer-events="none" x="0" y="5" font-size="10px" fill="#2A2C34" font-family="Helvetica Neue, Helvetica, Arial, sans-serif"> Dr. Brown</text></g><g class="node" aria-label="graph-node31" transform="translate(-327.9692773396649,279.63290849724524)"><circle class="b-outline" cx="0" cy="0" r="25" fill="#D9C8AE" stroke="#c0a378" stroke-width="2px"/><text class="caption" text-anchor="middle" pointer-events="none" x="0" y="5" font-size="10px" fill="#2A2C34" font-family="Helvetica Neue, Helvetica, Arial, sans-serif"> "2020-0…</text></g><g class="node" aria-label="graph-node32" transform="translate(-293.2794024643094,-7.443607728770832)"><circle class="b-outline" cx="0" cy="0" r="25" fill="#D9C8AE" stroke="#c0a378" stroke-width="2px"/><text class="caption" text-anchor="middle" pointer-events="none" x="0" y="5" font-size="10px" fill="#2A2C34" font-family="Helvetica Neue, Helvetica, Arial, sans-serif"> "2020-0…</text></g><g class="node" aria-label="graph-node33" transform="translate(-286.6312336634336,-231.11157445327973)"><circle class="b-outline" cx="0" cy="0" r="25" fill="#D9C8AE" stroke="#c0a378" stroke-width="2px"/><text class="caption" text-anchor="middle" pointer-events="none" x="0" y="5" font-size="10px" fill="#2A2C34" font-family="Helvetica Neue, Helvetica, Arial, sans-serif"> "2020-0…</text></g></g></svg>